<svg xmlns="http://www.w3.org/2000/svg" width="3.92cm" height="3.92cm" preserveAspectRatio="none" viewBox="0 0 37 37"><path fill="#fff" d="M0 0h37v37H0z"/><path d="M4 4h1v1H4zM5 4h1v1H5zM6 4h1v1H6zM7 4h1v1H7zM8 4h1v1H8zM9 4h1v1H9zM10 4h1v1h-1zM12 4h1v1h-1zM13 4h1v1h-1zM14 4h1v1h-1zM15 4h1v1h-1zM18 4h1v1h-1zM21 4h1v1h-1zM22 4h1v1h-1zM26 4h1v1h-1zM27 4h1v1h-1zM28 4h1v1h-1zM29 4h1v1h-1zM30 4h1v1h-1zM31 4h1v1h-1zM32 4h1v1h-1zM4 5h1v1H4zM10 5h1v1h-1zM15 5h1v1h-1zM16 5h1v1h-1zM20 5h1v1h-1zM21 5h1v1h-1zM23 5h1v1h-1zM24 5h1v1h-1zM26 5h1v1h-1zM32 5h1v1h-1zM4 6h1v1H4zM6 6h1v1H6zM7 6h1v1H7zM8 6h1v1H8zM10 6h1v1h-1zM13 6h1v1h-1zM15 6h1v1h-1zM17 6h1v1h-1zM26 6h1v1h-1zM28 6h1v1h-1zM29 6h1v1h-1zM30 6h1v1h-1zM32 6h1v1h-1zM4 7h1v1H4zM6 7h1v1H6zM7 7h1v1H7zM8 7h1v1H8zM10 7h1v1h-1zM14 7h1v1h-1zM15 7h1v1h-1zM17 7h1v1h-1zM18 7h1v1h-1zM19 7h1v1h-1zM20 7h1v1h-1zM21 7h1v1h-1zM26 7h1v1h-1zM28 7h1v1h-1zM29 7h1v1h-1zM30 7h1v1h-1zM32 7h1v1h-1zM4 8h1v1H4zM6 8h1v1H6zM7 8h1v1H7zM8 8h1v1H8zM10 8h1v1h-1zM14 8h1v1h-1zM15 8h1v1h-1zM16 8h1v1h-1zM17 8h1v1h-1zM18 8h1v1h-1zM20 8h1v1h-1zM21 8h1v1h-1zM22 8h1v1h-1zM23 8h1v1h-1zM26 8h1v1h-1zM28 8h1v1h-1zM29 8h1v1h-1zM30 8h1v1h-1zM32 8h1v1h-1zM4 9h1v1H4zM10 9h1v1h-1zM13 9h1v1h-1zM15 9h1v1h-1zM18 9h1v1h-1zM20 9h1v1h-1zM21 9h1v1h-1zM24 9h1v1h-1zM26 9h1v1h-1zM32 9h1v1h-1zM4 10h1v1H4zM5 10h1v1H5zM6 10h1v1H6zM7 10h1v1H7zM8 10h1v1H8zM9 10h1v1H9zM10 10h1v1h-1zM12 10h1v1h-1zM14 10h1v1h-1zM16 10h1v1h-1zM18 10h1v1h-1zM20 10h1v1h-1zM22 10h1v1h-1zM24 10h1v1h-1zM26 10h1v1h-1zM27 10h1v1h-1zM28 10h1v1h-1zM29 10h1v1h-1zM30 10h1v1h-1zM31 10h1v1h-1zM32 10h1v1h-1zM12 11h1v1h-1zM13 11h1v1h-1zM16 11h1v1h-1zM17 11h1v1h-1zM23 11h1v1h-1zM24 11h1v1h-1zM4 12h1v1H4zM5 12h1v1H5zM7 12h1v1H7zM8 12h1v1H8zM10 12h1v1h-1zM13 12h1v1h-1zM16 12h1v1h-1zM18 12h1v1h-1zM20 12h1v1h-1zM21 12h1v1h-1zM23 12h1v1h-1zM26 12h1v1h-1zM32 12h1v1h-1zM5 13h1v1H5zM7 13h1v1H7zM9 13h1v1H9zM14 13h1v1h-1zM18 13h1v1h-1zM19 13h1v1h-1zM23 13h1v1h-1zM25 13h1v1h-1zM27 13h1v1h-1zM28 13h1v1h-1zM30 13h1v1h-1zM31 13h1v1h-1zM4 14h1v1H4zM5 14h1v1H5zM6 14h1v1H6zM7 14h1v1H7zM8 14h1v1H8zM10 14h1v1h-1zM11 14h1v1h-1zM13 14h1v1h-1zM16 14h1v1h-1zM19 14h1v1h-1zM21 14h1v1h-1zM24 14h1v1h-1zM27 14h1v1h-1zM28 14h1v1h-1zM30 14h1v1h-1zM4 15h1v1H4zM8 15h1v1H8zM9 15h1v1H9zM11 15h1v1h-1zM12 15h1v1h-1zM21 15h1v1h-1zM22 15h1v1h-1zM24 15h1v1h-1zM25 15h1v1h-1zM26 15h1v1h-1zM27 15h1v1h-1zM29 15h1v1h-1zM32 15h1v1h-1zM4 16h1v1H4zM5 16h1v1H5zM9 16h1v1H9zM10 16h1v1h-1zM13 16h1v1h-1zM14 16h1v1h-1zM19 16h1v1h-1zM22 16h1v1h-1zM23 16h1v1h-1zM26 16h1v1h-1zM27 16h1v1h-1zM32 16h1v1h-1zM5 17h1v1H5zM6 17h1v1H6zM9 17h1v1H9zM12 17h1v1h-1zM13 17h1v1h-1zM14 17h1v1h-1zM16 17h1v1h-1zM17 17h1v1h-1zM18 17h1v1h-1zM19 17h1v1h-1zM20 17h1v1h-1zM21 17h1v1h-1zM22 17h1v1h-1zM26 17h1v1h-1zM27 17h1v1h-1zM28 17h1v1h-1zM29 17h1v1h-1zM30 17h1v1h-1zM31 17h1v1h-1zM32 17h1v1h-1zM4 18h1v1H4zM5 18h1v1H5zM6 18h1v1H6zM9 18h1v1H9zM10 18h1v1h-1zM11 18h1v1h-1zM13 18h1v1h-1zM14 18h1v1h-1zM17 18h1v1h-1zM18 18h1v1h-1zM19 18h1v1h-1zM21 18h1v1h-1zM23 18h1v1h-1zM24 18h1v1h-1zM25 18h1v1h-1zM26 18h1v1h-1zM28 18h1v1h-1zM30 18h1v1h-1zM32 18h1v1h-1zM4 19h1v1H4zM5 19h1v1H5zM6 19h1v1H6zM7 19h1v1H7zM9 19h1v1H9zM12 19h1v1h-1zM13 19h1v1h-1zM14 19h1v1h-1zM16 19h1v1h-1zM20 19h1v1h-1zM23 19h1v1h-1zM27 19h1v1h-1zM28 19h1v1h-1zM30 19h1v1h-1zM32 19h1v1h-1zM7 20h1v1H7zM8 20h1v1H8zM9 20h1v1H9zM10 20h1v1h-1zM11 20h1v1h-1zM12 20h1v1h-1zM13 20h1v1h-1zM15 20h1v1h-1zM16 20h1v1h-1zM17 20h1v1h-1zM20 20h1v1h-1zM23 20h1v1h-1zM24 20h1v1h-1zM25 20h1v1h-1zM29 20h1v1h-1zM4 21h1v1H4zM5 21h1v1H5zM7 21h1v1H7zM8 21h1v1H8zM11 21h1v1h-1zM14 21h1v1h-1zM15 21h1v1h-1zM18 21h1v1h-1zM19 21h1v1h-1zM22 21h1v1h-1zM23 21h1v1h-1zM28 21h1v1h-1zM30 21h1v1h-1zM31 21h1v1h-1zM4 22h1v1H4zM5 22h1v1H5zM6 22h1v1H6zM9 22h1v1H9zM10 22h1v1h-1zM11 22h1v1h-1zM14 22h1v1h-1zM16 22h1v1h-1zM19 22h1v1h-1zM20 22h1v1h-1zM21 22h1v1h-1zM23 22h1v1h-1zM28 22h1v1h-1zM29 22h1v1h-1zM32 22h1v1h-1zM4 23h1v1H4zM5 23h1v1H5zM11 23h1v1h-1zM12 23h1v1h-1zM13 23h1v1h-1zM15 23h1v1h-1zM17 23h1v1h-1zM18 23h1v1h-1zM23 23h1v1h-1zM26 23h1v1h-1zM29 23h1v1h-1zM30 23h1v1h-1zM4 24h1v1H4zM5 24h1v1H5zM6 24h1v1H6zM7 24h1v1H7zM8 24h1v1H8zM10 24h1v1h-1zM11 24h1v1h-1zM12 24h1v1h-1zM13 24h1v1h-1zM14 24h1v1h-1zM15 24h1v1h-1zM18 24h1v1h-1zM19 24h1v1h-1zM21 24h1v1h-1zM24 24h1v1h-1zM25 24h1v1h-1zM26 24h1v1h-1zM27 24h1v1h-1zM28 24h1v1h-1zM29 24h1v1h-1zM30 24h1v1h-1zM31 24h1v1h-1zM12 25h1v1h-1zM13 25h1v1h-1zM16 25h1v1h-1zM18 25h1v1h-1zM19 25h1v1h-1zM22 25h1v1h-1zM24 25h1v1h-1zM28 25h1v1h-1zM29 25h1v1h-1zM4 26h1v1H4zM5 26h1v1H5zM6 26h1v1H6zM7 26h1v1H7zM8 26h1v1H8zM9 26h1v1H9zM10 26h1v1h-1zM14 26h1v1h-1zM15 26h1v1h-1zM19 26h1v1h-1zM20 26h1v1h-1zM21 26h1v1h-1zM22 26h1v1h-1zM23 26h1v1h-1zM24 26h1v1h-1zM26 26h1v1h-1zM28 26h1v1h-1zM29 26h1v1h-1zM4 27h1v1H4zM10 27h1v1h-1zM13 27h1v1h-1zM15 27h1v1h-1zM16 27h1v1h-1zM18 27h1v1h-1zM21 27h1v1h-1zM23 27h1v1h-1zM24 27h1v1h-1zM28 27h1v1h-1zM31 27h1v1h-1zM4 28h1v1H4zM6 28h1v1H6zM7 28h1v1H7zM8 28h1v1H8zM10 28h1v1h-1zM12 28h1v1h-1zM14 28h1v1h-1zM15 28h1v1h-1zM16 28h1v1h-1zM20 28h1v1h-1zM23 28h1v1h-1zM24 28h1v1h-1zM25 28h1v1h-1zM26 28h1v1h-1zM27 28h1v1h-1zM28 28h1v1h-1zM29 28h1v1h-1zM31 28h1v1h-1zM4 29h1v1H4zM6 29h1v1H6zM7 29h1v1H7zM8 29h1v1H8zM10 29h1v1h-1zM12 29h1v1h-1zM14 29h1v1h-1zM19 29h1v1h-1zM21 29h1v1h-1zM22 29h1v1h-1zM25 29h1v1h-1zM32 29h1v1h-1zM4 30h1v1H4zM6 30h1v1H6zM7 30h1v1H7zM8 30h1v1H8zM10 30h1v1h-1zM13 30h1v1h-1zM15 30h1v1h-1zM16 30h1v1h-1zM17 30h1v1h-1zM19 30h1v1h-1zM21 30h1v1h-1zM22 30h1v1h-1zM24 30h1v1h-1zM25 30h1v1h-1zM27 30h1v1h-1zM28 30h1v1h-1zM30 30h1v1h-1zM31 30h1v1h-1zM32 30h1v1h-1zM4 31h1v1H4zM10 31h1v1h-1zM12 31h1v1h-1zM13 31h1v1h-1zM15 31h1v1h-1zM18 31h1v1h-1zM26 31h1v1h-1zM27 31h1v1h-1zM29 31h1v1h-1zM30 31h1v1h-1zM32 31h1v1h-1zM4 32h1v1H4zM5 32h1v1H5zM6 32h1v1H6zM7 32h1v1H7zM8 32h1v1H8zM9 32h1v1H9zM10 32h1v1h-1zM12 32h1v1h-1zM14 32h1v1h-1zM16 32h1v1h-1zM18 32h1v1h-1zM19 32h1v1h-1zM23 32h1v1h-1zM24 32h1v1h-1zM26 32h1v1h-1zM28 32h1v1h-1z"/></svg>