<?xml version="1.0" encoding="UTF-8" standalone="no"?>
<svg
   xmlns:dc="http://purl.org/dc/elements/1.1/"
   xmlns:cc="http://creativecommons.org/ns#"
   xmlns:rdf="http://www.w3.org/1999/02/22-rdf-syntax-ns#"
   xmlns:svg="http://www.w3.org/2000/svg"
   xmlns="http://www.w3.org/2000/svg"
   xmlns:sodipodi="http://sodipodi.sourceforge.net/DTD/sodipodi-0.dtd"
   xmlns:inkscape="http://www.inkscape.org/namespaces/inkscape"
   inkscape:export-ydpi="96"
   inkscape:export-xdpi="96"
   inkscape:export-filename="/Users/colin/Dropbox/Code and Supply/Survey Ads/codeandsupply_survey_600x500.png"
   sodipodi:docname="codeandsupply_survey_600x500.svg"
   inkscape:version="1.0 (4035a4f, 2020-05-01)"
   id="svg17087"
   version="1.1"
   viewBox="0 0 600 500"
   height="500"
   width="600">
  <defs
     id="defs17081">
    <rect
       id="rect744"
       height="87.068672"
       width="207.80518"
       y="8.9372768"
       x="110.45078" />
    <rect
       id="rect1683"
       height="87.068672"
       width="207.80518"
       y="8.9372768"
       x="110.45078" />
    <rect
       x="110.45078"
       y="8.9372768"
       width="207.80518"
       height="87.068672"
       id="rect18418" />
    <rect
       id="rect18486"
       height="87.068672"
       width="207.80518"
       y="8.9372768"
       x="110.45078" />
  </defs>
  <sodipodi:namedview
     inkscape:window-maximized="0"
     inkscape:window-y="1463"
     inkscape:window-x="1103"
     inkscape:window-height="755"
     inkscape:window-width="1252"
     inkscape:pagecheckerboard="true"
     units="px"
     showgrid="false"
     inkscape:document-rotation="0"
     inkscape:current-layer="layer1"
     inkscape:document-units="px"
     inkscape:cy="241.81983"
     inkscape:cx="356.35098"
     inkscape:zoom="0.905042"
     inkscape:pageshadow="2"
     inkscape:pageopacity="0.0"
     borderopacity="1.0"
     bordercolor="#666666"
     pagecolor="#ffffff"
     id="base" />
  <metadata
     id="metadata17084">
    <rdf:RDF>
      <cc:Work
         rdf:about="">
        <dc:format>image/svg+xml</dc:format>
        <dc:type
           rdf:resource="http://purl.org/dc/dcmitype/StillImage" />
        <dc:title></dc:title>
      </cc:Work>
    </rdf:RDF>
  </metadata>
  <g
     sodipodi:insensitive="true"
     inkscape:label="Background"
     id="layer2"
     inkscape:groupmode="layer">
    <rect
       y="0"
       x="0"
       height="500"
       width="600"
       id="rect17201"
       style="fill:#b22d00;stroke-width:0.721688" />
  </g>
  <g
     id="layer1"
     inkscape:groupmode="layer"
     inkscape:label="Layer 1">
    <text
       xml:space="preserve"
       style="font-style:normal;font-weight:normal;font-size:25.29339999999999833px;line-height:1.25;font-family:sans-serif;fill:#000000;fill-opacity:1;stroke:none;stroke-width:0.39521;"
       x="13.061022"
       y="582.4538"
       id="text95"><tspan
         sodipodi:role="line"
         id="tspan93"
         x="13.061022"
         y="582.4538"
         style="font-style:italic;font-variant:normal;font-weight:300;font-stretch:normal;font-size:25.29339999999999833px;font-family:'Libre Franklin';-inkscape-font-specification:'Libre Franklin Light Italic';fill:#000000;stroke-width:0.39521;">A survey of tech worker compensation and work life</tspan></text>
    <g
       transform="matrix(0.2,0,0,0.2,-247.842,371.476)"
       id="g18372">
      <path
         fill="#b22e01"
         d="M 0,0 H 1000 V 1000 H 0 Z"
         id="path18262" />
      <path
         fill="#fdfafa"
         d="m 337.16,140.38 c 11.25,-7.22 27.64,-5.13 36.39,5.09 5.73,6.28 7.11,15.64 4.5,23.59 -2.79,8.44 -8.36,16.64 -16.84,20.12 -7.87,3.32 -17.32,1.35 -23.46,-4.51 -5.65,9.67 -11.25,19.38 -16.76,29.14 -3.25,0.31 -6.51,0.38 -9.77,0.33 11.98,-21.22 24.28,-42.25 36.55,-63.3 3.08,0.02 6.17,0.02 9.25,0.04 -5.26,10.02 -11.21,19.67 -16.78,29.52 2.55,2.06 5.43,4.01 8.83,4.13 6.97,0.63 13.51,-3.77 17.05,-9.55 3.66,-5.8 6.29,-13.04 4.31,-19.89 -1.53,-5.67 -6.39,-10.1 -12,-11.6 -7.39,-2.29 -15.71,0.44 -21,5.89 -4.54,4.45 -7,10.52 -8.64,16.55 -2.22,-0.18 -4.42,-0.4 -6.62,-0.65 1.26,-9.89 6.45,-19.5 14.99,-24.9 z"
         id="path18264" />
      <path
         fill="#fdfafa"
         d="m 419.98,149.24 c 3.18,-0.02 6.37,-0.01 9.56,0.01 -2.91,5.08 -5.86,10.13 -8.7,15.25 4.77,0.06 9.55,0.04 14.32,0.03 3.03,-4.94 5.6,-10.15 8.77,-15.01 3.12,-0.66 6.39,-0.17 9.58,-0.26 -2.87,5.09 -5.84,10.13 -8.67,15.24 2.53,0.03 5.06,0.04 7.6,0.06 -0.83,1.42 -1.66,2.84 -2.48,4.26 -2.59,0.37 -5.82,-0.71 -8.04,0.79 -6.24,10.28 -11.94,20.9 -18.06,31.26 -1.29,2.37 -3.21,4.78 -2.7,7.65 1.77,1.39 3.89,0.24 5.62,-0.63 6.41,-3.82 10.7,-10.13 16.27,-14.95 7.07,-8.22 13.27,-17.16 19.58,-25.97 2.47,1.1 4.85,2.37 7.22,3.69 -5.01,10.8 -5.17,22.88 -7.72,34.33 5.55,-4.32 11.14,-9.04 14.45,-15.37 7.74,-13.48 15.57,-26.92 23.35,-40.38 3.24,-0.02 6.49,-0.02 9.74,0.02 -3.8,6.56 -7.53,13.16 -11.38,19.69 3.79,-1.36 8.55,-2.14 11.7,1.02 3.63,3.64 2.46,9.38 0.54,13.58 -3.09,6.33 -7.04,12.21 -10.36,18.42 4.9,-0.52 10.11,-2.42 13.09,-6.54 5.2,-8.55 9.85,-17.43 15.13,-25.92 2.92,-1.39 6.47,-0.39 9.63,-0.34 -4.66,8.25 -9.43,16.45 -14.11,24.7 -2.33,4.16 -5,8.17 -6.73,12.64 0.73,0.21 2.19,0.63 2.91,0.83 4.87,-2.2 9.13,-5.71 12.84,-9.51 5.29,-8.72 10.17,-17.7 15.26,-26.55 1.8,-4.21 7.32,-1.91 10.82,-2.11 -6.53,11.42 -12.99,22.88 -19.56,34.27 -0.91,1.53 -1.62,3.27 -1.24,5.08 1.77,1.42 3.92,0.21 5.65,-0.65 4.7,-2.81 8.34,-7.02 12.06,-10.97 6.16,-7.45 12.12,-15.09 17.48,-23.13 -1.08,-2.8 -3.27,-5.55 -2.45,-8.72 0.5,-2.94 2.44,-5.3 4.6,-7.23 1.51,1.71 3.02,3.42 4.52,5.15 -0.45,1.59 -1.57,3.35 -0.59,4.98 2.52,3.92 6.42,6.9 8.26,11.27 1.27,2.76 0.12,5.81 -1.21,8.31 -3.07,5.58 -6.37,11.02 -9.46,16.58 -0.81,1.31 -1.11,2.87 -0.9,4.39 2.75,1.8 5.81,-0.75 8.1,-2.26 5.69,-4.69 11.12,-10.02 14.46,-16.69 4.02,-6.4 6.81,-14.08 13.39,-18.39 4.18,-2.99 10.43,-4.42 14.83,-1.09 2.39,1.61 3.39,4.44 4.25,7.07 1.71,0.03 3.43,0.07 5.17,0.11 -6.98,11.84 -13.94,23.7 -20.83,35.59 9.17,-4.31 16.51,-11.63 22.78,-19.43 8.69,-14.63 16.99,-29.49 25.59,-44.18 3.17,-0.01 6.36,0 9.55,0.03 -4.87,8.43 -9.71,16.87 -14.5,25.34 3.49,-3.43 7.84,-6.85 13.05,-6.46 3.22,-0.08 6.02,2.71 6.29,5.86 0.29,3.09 -1.4,5.86 -2.83,8.46 -3.82,6.55 -7.48,13.18 -11.3,19.71 -1.1,1.94 -2.46,4.02 -1.97,6.36 2.05,1.52 4.48,-0.04 6.37,-1.08 5.33,-3.57 9.53,-8.52 13.74,-13.29 1.24,1.15 2.45,2.32 3.65,3.53 -5.88,6.3 -11.79,13.23 -20.02,16.48 -4.07,1.28 -9.92,1.34 -12.17,-3.02 -1.22,-3.08 -0.64,-6.66 1,-9.48 4.14,-7.45 8.64,-14.71 12.66,-22.23 1.03,-1.5 1.37,-4.88 -1.46,-3.97 -6.44,2.46 -10.87,8.29 -15.16,13.42 -5.16,8.28 -9.74,16.9 -14.69,25.29 -3.15,0 -6.28,0.01 -9.41,-0.03 0.63,-1.36 1.28,-2.71 1.95,-4.06 -5.08,4.15 -10.92,7.25 -17.09,9.43 -2.91,4.79 -5.33,9.9 -8.6,14.46 -3,3.87 -8,6.49 -12.96,5.52 -3.9,-0.58 -6.87,-4.67 -6.02,-8.55 0.48,-2.96 2.29,-5.54 4.63,-7.34 4.6,-3.62 10.17,-5.67 15.69,-7.43 0.81,-1.31 1.62,-2.62 2.45,-3.92 -3.83,2.19 -8.55,3.59 -12.85,1.93 -2.57,-0.94 -3.5,-3.65 -4.17,-6.04 -4.34,3.18 -8.98,7 -14.7,6.74 -3.06,0.19 -6.47,-1.27 -7.52,-4.31 -0.69,-2.66 -0.48,-5.62 0.81,-8.06 3.45,-6.6 7.7,-12.78 10.93,-19.49 0.27,-1.62 -0.62,-4.97 -2.66,-4.64 -8.72,11.2 -16.54,23.55 -28.07,32.15 -4.49,3.45 -10.85,5.97 -16.27,3.24 -2.78,-1.38 -3.08,-4.66 -3.26,-7.39 -4.86,4.4 -10.75,9.95 -17.9,8.17 -4.02,-1.46 -3.88,-6.45 -2.78,-9.85 -3.55,1.45 -7.35,2.07 -11.18,2.06 -4.62,5.49 -11.78,9.95 -19.21,8.28 -4.68,-0.84 -7.87,-5.3 -7.88,-9.95 -6.69,5.52 -14.85,10.71 -23.92,9.68 -4.15,-0.24 -7.25,-3.76 -8.27,-7.57 1.92,-0.91 3.83,-1.85 5.76,-2.75 1.3,1.19 2.32,3.27 4.36,3.19 3.51,0.4 5.63,-3.11 6.48,-6.02 1.74,-6.49 2.29,-13.22 3.47,-19.82 -4.55,6.09 -8.71,12.6 -14.54,17.57 -5.66,5.89 -11.41,12.4 -19.38,15.07 -3.48,0.73 -7.87,0.94 -10.41,-2.01 -1.36,-1.41 -1.29,-3.51 -1.76,-5.28 -5.04,4.03 -10.83,8.76 -17.75,7.6 -3.92,-0.2 -6.2,-3.98 -6.25,-7.58 -4.85,3.8 -10.2,8.38 -16.81,7.67 -3.29,0.09 -6.64,-2.41 -6.84,-5.82 -0.38,-2.78 0.4,-5.57 1.86,-7.93 6.28,-10.76 12.37,-21.62 18.72,-32.34 3.1,0.01 6.2,0.01 9.31,0.05 -6.53,12.16 -13.71,23.96 -20.39,36.04 -1.2,1.72 -0.65,5.37 2.07,4.24 6.87,-2.14 11.2,-8.42 16.17,-13.21 3.36,-2.86 5.07,-7.02 7.31,-10.71 3.02,-5.42 6.39,-10.65 9.09,-16.25 -2.74,0.13 -5.48,0.2 -8.21,0.21 0.83,-1.54 1.69,-3.07 2.56,-4.6 2.83,0.01 5.66,0.01 8.49,0 2.97,-5.07 5.84,-10.21 8.81,-15.29 z"
         id="path18266" />
      <path
         fill="#fdfafa"
         d="m 393.38,153.49 c 3.53,-1.29 7.79,1.69 7.36,5.53 0.27,4.68 -6.38,7.02 -9.4,3.68 -2.89,-2.61 -1.72,-8.11 2.04,-9.21 z"
         id="path18268" />
      <path
         fill="#b22e01"
         d="m 416.6,171.63 c 0.79,-1.24 1.52,-3.12 3.39,-2.66 4.11,0.15 8.23,0.09 12.34,-0.1 -2.54,5.42 -5.83,10.44 -8.73,15.67 -2.4,3.89 -4.13,8.33 -7.69,11.35 -5.15,4.94 -9.64,11.61 -16.94,13.38 -2.89,-0.12 -1.88,-3.5 -0.94,-5.14 6.19,-10.84 12.41,-21.65 18.57,-32.5 z"
         id="path18270" />
      <path
         fill="#b22e01"
         d="m 492.43,179.41 c 2.14,-3.36 5.82,-6.86 10.1,-5.06 0.82,2.38 1.17,4.98 -0.19,7.25 -3.09,5.75 -6.46,11.37 -9.84,16.94 -1.87,1.41 -2.6,-1.48 -3.45,-2.66 -2.34,-5.59 0.26,-11.74 3.38,-16.47 z"
         id="path18272" />
      <path
         fill="#b22e01"
         d="m 617.5,176.75 c 2.21,-1.42 5.51,-1.4 6.86,1.17 0.75,3.45 -1.75,6.35 -3.24,9.21 -4.22,7.19 -8,15.15 -15,20.08 -2,1.21 -4.59,2.75 -6.89,1.46 -0.57,-2.14 0.46,-4.17 1.53,-5.95 3.82,-6.5 7.53,-13.07 11.27,-19.63 1.37,-2.44 2.99,-4.91 5.47,-6.34 z"
         id="path18274" />
      <path
         fill="#fdfafa"
         d="m 70.62,188.5 c 2.13,-0.2 4.26,-0.32 6.4,-0.31 70.21,0.04 140.43,-0.03 210.64,0.04 -0.01,2.7 -0.01,5.41 -0.01,8.12 -71.59,-0.01 -143.18,0.08 -214.77,-0.04 -3.93,-0.32 -2.53,-5.19 -2.26,-7.81 z"
         id="path18276" />
      <path
         fill="#fdfafa"
         d="m 720.56,188.29 c 56.83,-0.21 113.66,-0.03 170.5,-0.09 16.69,0.08 33.39,-0.18 50.08,0.14 0.31,0.61 0.95,1.84 1.26,2.45 -0.01,0.81 -0.04,2.43 -0.05,3.25 -0.33,0.56 -0.98,1.69 -1.31,2.25 -73.49,0.14 -146.97,0.07 -220.45,0.04 -0.01,-2.68 -0.01,-5.36 -0.03,-8.04 z"
         id="path18278" />
      <path
         fill="#b22e01"
         d="m 478.54,206.13 c -0.19,-4.21 2.9,-7.52 4.58,-11.15 1.05,3.7 3.07,7.02 6,9.54 -2.08,3.41 -8.43,6.44 -10.58,1.61 z"
         id="path18280" />
      <path
         fill="#b22e01"
         d="m 591.64,229.87 c 1.25,-4 5.59,-5.55 9.03,-7.19 -1.87,3.18 -3.24,6.75 -5.81,9.45 -1.62,1.19 -3.86,-0.32 -3.22,-2.26 z"
         id="path18282" />
      <path
         fill="#fdfafa"
         d="m 140.94,307 c 16.47,-5.08 34.48,-5.8 51.1,-0.94 7.19,2 13.98,5.2 20.5,8.8 0.05,9.99 0.05,19.98 -0.01,29.97 -10.61,-9.1 -23.49,-16.06 -37.5,-17.86 -14.31,-1.86 -29.47,1.4 -41.26,9.87 -14.11,10.01 -24.24,25.82 -26.23,43.13 -1.99,14.42 0.45,29.7 8.13,42.2 8.8,14.38 23.55,25.37 40.32,28.23 11.83,1.95 24.5,1.37 35.45,-3.9 7.75,-3.55 14.62,-8.7 21.11,-14.17 0.04,10.17 0.01,20.34 0.02,30.51 -16.71,9.64 -36.49,14.02 -55.68,11.67 -35.56,-3.33 -66.92,-32.06 -73.65,-67.08 -3.67,-18.8 -1.46,-38.9 7.2,-56.07 10.38,-20.43 28.41,-37.45 50.5,-44.36 z"
         id="path18284" />
      <path
         fill="#fdfafa"
         d="m 309.44,303.82 c 14.99,-1.99 30.57,-0.73 44.71,4.83 15.74,6.16 29.14,17.45 39.14,30.96 21.52,29.16 21.13,72.76 -1.52,101.19 -11.37,14.4 -26.92,25.76 -44.67,30.79 -15.67,4.43 -32.55,4.78 -48.3,0.53 -17.94,-4.93 -33.94,-16 -45.7,-30.33 -12.19,-15.02 -17.83,-34.62 -17.52,-53.81 -0.23,-19.49 6.9,-38.92 19.76,-53.57 13.61,-16.22 32.97,-27.82 54.1,-30.59 z"
         id="path18286" />
      <path
         fill="#fdfafa"
         d="m 815.87,314.86 c 5.58,-5.84 13.2,-9.49 21.13,-10.75 11.4,-1.89 23.87,-0.22 33.42,6.63 4.68,3.54 8.87,7.95 11.39,13.3 5.27,11.07 4.43,25.01 -2.85,34.99 -5.9,8.2 -13.9,14.54 -21.72,20.79 9.99,11.89 19.82,23.92 29.76,35.86 6.33,-6.96 12.57,-14.01 18.27,-21.5 5.61,5.51 11.03,11.2 16.57,16.79 -5.91,8.19 -12.78,15.63 -19.58,23.08 10.14,12.72 20.61,25.19 30.62,38.02 -10.34,0.22 -20.69,0.02 -31.04,0.11 -5.71,-6.66 -11.06,-13.61 -16.72,-20.31 -10,10.38 -22.32,19.27 -36.64,22.33 -15.38,3.13 -32.27,-0.21 -44.69,-10.01 -11.47,-8.64 -18.7,-22.71 -18.49,-37.13 -0.43,-10.69 3.27,-21.39 10.01,-29.66 7.09,-9.21 17.5,-14.79 26.77,-21.46 -6.69,-7.71 -13.07,-16.2 -15.36,-26.35 -2.76,-12.09 0.22,-25.85 9.15,-34.73 z"
         id="path18288" />
      <path
         fill="#fdfafa"
         d="m 439.75,306.15 c 14.1,0.04 28.2,-0.09 42.3,0.07 15.83,0.3 32.07,2.85 46.02,10.75 17.51,9.88 31.24,26.61 36.66,46.06 4.59,16.51 4.7,34.28 0.25,50.83 -8.24,29.97 -35.95,53.56 -66.87,56.87 -19.36,2.31 -38.9,1.15 -58.34,1.43 -0.06,-55.33 -0.02,-110.67 -0.02,-166.01 z"
         id="path18290" />
      <path
         fill="#fdfafa"
         d="m 599.68,306.17 c 30.59,-0.05 61.17,-0.01 91.75,-0.02 0.02,7.84 0,15.68 0.01,23.53 -22.09,0 -44.18,0.04 -66.26,-0.02 -0.76,13.22 -0.15,26.48 -0.33,39.72 21.55,0.09 43.1,0.01 64.66,0.05 -0.02,7.91 0.04,15.82 -0.04,23.73 -21.54,0.04 -43.09,-0.08 -64.63,0.06 0,18.38 0,36.75 0,55.13 22.2,0.08 44.4,0 66.6,0.04 -0.02,7.92 0.04,15.85 -0.04,23.77 -28.47,0.01 -56.93,-0.01 -85.4,0.02 -2.11,-0.01 -4.23,-0.11 -6.33,-0.26 0.03,-55.25 0,-110.5 0.01,-165.75 z"
         id="path18292" />
      <path
         fill="#b22e01"
         d="m 838.45,325.63 c 6.56,-2.55 15.1,-1.53 19.83,4.06 4.99,5.96 3.99,15.64 -1.66,20.84 -4.33,4.14 -8.93,8.17 -14.08,11.24 -5.52,-6.72 -13.07,-13.38 -13.18,-22.75 -0.51,-5.94 3.85,-11.17 9.09,-13.39 z"
         id="path18294" />
      <path
         fill="#b22e01"
         d="m 314.15,327.11 c 14.82,-1.91 30.56,1.21 42.86,9.91 11.38,8.11 20.45,19.84 24.18,33.43 4.23,15.45 3.23,32.58 -3.94,47.02 -7.58,14.89 -21.2,26.84 -37.35,31.49 -13.53,3.77 -28.42,3.37 -41.38,-2.26 -11.04,-4.83 -20.54,-12.98 -27.45,-22.81 -9.43,-13.85 -11.97,-31.59 -9.04,-47.88 4.49,-25.16 26.62,-46.18 52.12,-48.9 z"
         id="path18296" />
      <path
         fill="#b22e01"
         d="m 464.86,329.72 c 16.67,-0.31 34.25,-0.06 49.37,7.9 14.88,7.78 25.08,23.17 27.66,39.63 2.15,14.29 0.73,29.61 -6.66,42.27 -8.13,13.86 -22.28,24.28 -38.18,27.13 -10.52,2.15 -21.28,1.7 -31.94,1.75 -0.57,-15.11 -0.1,-30.26 -0.25,-45.39 0,-24.43 -0.01,-48.86 0,-73.29 z"
         id="path18298" />
      <path
         fill="#b22e01"
         d="m 815.87,410.86 c 6.31,-6.53 13.82,-11.73 21.25,-16.89 10.89,13.26 21.91,26.43 32.65,39.83 -8.3,7.77 -17.29,15.96 -28.76,18.35 -15.52,3.15 -31.26,-10.69 -31.62,-26.18 -0.18,-5.7 2.58,-11.1 6.48,-15.11 z"
         id="path18300" />
      <path
         fill="#fdfafa"
         d="m 104.72,584.76 c 13.47,-11.05 32.62,-13.93 49.16,-9.17 13.11,3.83 23.15,14.14 29.88,25.66 -6.78,4.16 -13.66,8.16 -20.51,12.19 -3.34,-5.58 -7.13,-11.54 -13.34,-14.22 -10.77,-4.39 -25.08,-2.26 -32.14,7.63 -4.37,6.04 -4.57,15.13 0.54,20.81 6.47,7.5 16.43,10.03 25.17,13.86 13.05,5.09 26.48,11.25 35.4,22.5 9.1,11.41 10.8,27.11 7.94,41.05 -2.75,14.29 -12.44,26.71 -24.97,33.87 -11.66,6.61 -25.73,8.02 -38.78,5.72 -12.14,-2.1 -23.43,-8.95 -30.57,-19.04 -6.16,-8.46 -9.32,-18.68 -11,-28.91 8.53,-1.93 17.06,-3.86 25.62,-5.59 1.01,8.42 2.54,17.66 9.04,23.75 6.7,6.62 16.83,8.06 25.79,6.48 8.93,-1.81 16.5,-8.79 19.32,-17.41 2.52,-8.21 2.03,-17.94 -3.41,-24.9 -7.22,-9.01 -18.65,-12.64 -28.89,-17 -11.71,-4.61 -23.65,-10.34 -31.69,-20.38 -6.97,-8.46 -9.68,-20.01 -7.92,-30.76 1.3,-10.35 7.27,-19.72 15.36,-26.14 z"
         id="path18302" />
      <path
         fill="#fdfafa"
         d="m 236.43,670.97 c 0.02,-31.44 -0.02,-62.89 0.03,-94.33 8.39,0.01 16.78,0.01 25.17,0 0.05,29.12 0,58.24 0.02,87.37 0.07,11.66 -0.73,23.63 2.81,34.92 2.83,9.83 10.85,17.83 20.5,21.05 5.79,2.09 12.07,2.12 18.13,1.69 11.95,-1 23.18,-9 27.55,-20.23 3.35,-9.07 3.69,-18.9 3.65,-28.46 -0.02,-32.1 0,-64.2 -0.01,-96.31 8.39,-0.05 16.79,-0.02 25.19,-0.02 0.03,30.79 0,61.57 0.01,92.36 -0.11,11.08 0.77,22.4 -2.38,33.18 -4.35,16.63 -16.84,30.5 -32.25,37.79 -12.38,5.77 -26.61,6.96 -39.95,4.49 -22.35,-4.15 -41.69,-22.14 -46.66,-44.44 -2.41,-9.5 -1.71,-19.36 -1.81,-29.06 z"
         id="path18304" />
      <path
         fill="#fdfafa"
         d="m 417.22,576.65 c 12.62,0.05 25.25,-0.13 37.88,0.1 9.92,0.67 20.22,1.13 29.34,5.53 13.29,6.58 23.06,19.89 25.17,34.6 2.11,13.4 -0.2,28.09 -8.72,38.97 -8.57,11.03 -22.12,17.25 -35.8,18.79 -7.51,1.12 -15.11,0.65 -22.67,0.75 0,22.42 0,44.85 0,67.28 -8.41,0.03 -16.81,0.01 -25.22,0.01 0,-55.34 -0.02,-110.69 0.02,-166.03 z"
         id="path18306" />
      <path
         fill="#fdfafa"
         d="m 553.8,576.67 c 18.72,0.34 37.63,-1.25 56.18,2.01 18.36,3.11 33.23,19.07 36.19,37.28 1.72,12.01 0.77,24.99 -5.63,35.59 -6.88,11.69 -19.36,19.24 -32.43,22.02 -9.48,2.21 -19.26,1.82 -28.91,1.82 0.01,22.41 -0.02,44.82 0.01,67.23 -8.48,0.11 -16.95,0.09 -25.43,0.01 0.02,-55.32 0,-110.64 0.02,-165.96 z"
         id="path18308" />
      <path
         fill="#fdfafa"
         d="m 690.58,576.65 c 8.4,-0.01 16.8,-0.01 25.2,0 0.01,47.38 0.05,94.76 -0.02,142.14 16.23,0.78 32.52,0.11 48.77,0.35 0,7.85 0,15.69 0,23.54 -24.66,0 -49.31,0.02 -73.97,-0.01 0.02,-55.34 -0.01,-110.68 0.02,-166.02 z"
         id="path18310" />
      <path
         fill="#fdfafa"
         d="m 786.72,576.67 c 9.6,-0.07 19.21,0.02 28.83,-0.05 12.48,21.56 24.74,43.25 37.19,64.83 0.57,1.64 1.84,-0.72 2.28,-1.27 12.22,-21.17 24.26,-42.45 36.57,-63.56 9.63,0.07 19.25,-0.01 28.88,0.05 -17.76,30.85 -35.55,61.68 -53.37,92.5 -0.97,1.43 -1,3.18 -0.97,4.85 0.06,22.86 -0.01,45.72 0.04,68.59 -8.47,0.14 -16.94,0.08 -25.41,0.03 -0.09,-23.86 0.2,-47.73 -0.14,-71.57 -3.89,-7.85 -8.7,-15.25 -12.93,-22.93 -13.63,-23.84 -27.46,-47.57 -40.97,-71.47 z"
         id="path18312" />
      <path
         fill="#b22e01"
         d="m 442.46,599.78 c 11.59,-0.03 24.29,-0.44 34.35,6.28 7.76,5.11 10.32,15.26 8.91,24.03 -0.67,7.11 -4.83,13.84 -11.2,17.21 -9.75,5.32 -21.25,4.79 -32.01,4.88 -0.19,-17.46 -0.08,-34.93 -0.05,-52.4 z"
         id="path18314" />
      <path
         fill="#b22e01"
         d="m 579.25,599.78 c 11.43,-0.05 23.88,-0.41 33.89,6.01 6.49,4.01 9.66,11.81 9.57,19.23 0.34,8.19 -2.86,17.1 -10.16,21.47 -9.87,6.19 -22.05,5.58 -33.24,5.69 -0.22,-17.46 -0.11,-34.93 -0.06,-52.4 z"
         id="path18316" />
      <path
         fill="#fdfafa"
         d="m 457.55,804.59 c 10.16,-9.01 26.18,-10.2 37.68,-3.05 -0.06,3.68 -0.05,7.36 -0.04,11.04 -5.67,-4.43 -12.86,-7.88 -20.22,-6.55 -8.91,1.19 -16.41,8.45 -18.49,17.1 -2.13,7.81 0.04,16.77 5.88,22.46 5.76,6.14 15.19,8.23 23.1,5.56 3.59,-1.32 6.66,-3.69 9.72,-5.93 0.01,3.74 -0.01,7.48 0.05,11.22 -6.86,4.12 -15.24,5.75 -23.11,4.2 -10.44,-1.74 -19.51,-9.39 -23.57,-19.07 -5.23,-12.63 -1.43,-28.16 9,-36.98 z"
         id="path18318" />
      <path
         fill="#fdfafa"
         d="m 521.69,819.99 c 7.28,-1.1 15.05,1.88 19.58,7.72 6.68,8.29 5.51,21.88 -2.89,28.6 -7.1,5.99 -18.29,6.64 -25.88,1.21 -5.98,-4.13 -9.34,-11.47 -8.75,-18.68 0.45,-9.52 8.54,-17.8 17.94,-18.85 z"
         id="path18320" />
      <path
         fill="#fdfafa"
         d="m 70.57,828.48 c 14.79,-0.7 29.63,-0.12 44.43,-0.31 57.56,0.03 115.12,-0.06 172.67,0.05 -0.02,2.68 -0.02,5.38 -0.03,8.08 -71.66,0.02 -143.31,-0.02 -214.97,0.02 -0.58,-0.28 -1.72,-0.83 -2.29,-1.1 -0.17,-2.26 -0.09,-4.51 0.19,-6.74 z"
         id="path18322" />
      <path
         fill="#b22e01"
         d="m 520.58,828.77 c 3.88,-1.13 8.51,-0.79 11.61,2.03 4.77,4.2 5.18,11.97 1.97,17.22 -3.06,4.89 -9.97,5.99 -14.95,3.63 -8.67,-4.42 -8.05,-19.67 1.37,-22.88 z"
         id="path18324" />
      <path
         fill="#fdfafa"
         d="m 720.56,828.27 c 57.81,-0.22 115.62,-0.04 173.43,-0.1 15.81,0.08 31.62,-0.17 47.42,0.14 1.08,2.63 1.79,6.06 -0.79,8.1 -73.34,-0.26 -146.69,0 -220.03,-0.13 -0.01,-2.68 -0.01,-5.35 -0.03,-8.01 z"
         id="path18326" />
      <path
         fill="#fdfafa"
         d="m 559.59,850.71 c 3.35,-2.48 8.49,0.25 8.76,4.26 0.62,4.18 -4.47,7.76 -8.18,5.67 -3.86,-1.62 -4.14,-7.85 -0.58,-9.93 z"
         id="path18328" />
    </g>
    <g
       transform="translate(8,-228)"
       id="g18416">
      <text
         xml:space="preserve"
         id="text18404"
         style="font-style:normal;font-weight:normal;font-size:28.57499999999999929px;line-height:1.45;font-family:sans-serif;white-space:pre;shape-inside:url(#rect18418);fill:#ffffff;fill-opacity:1;stroke:none;"
         transform="matrix(1.9749187,0,0,1.9749187,-16.738001,24.19275)"><tspan
           x="110.45117"
           y="38.663692"><tspan
             style="font-style:normal;font-variant:normal;font-weight:bold;font-stretch:normal;font-size:28.575px;font-family:Helvetica;-inkscape-font-specification:'Helvetica Bold';fill:#ffffff;fill-opacity:1">Compensation
</tspan></tspan><tspan
           x="110.45117"
           y="80.896297"><tspan
             style="font-style:normal;font-variant:normal;font-weight:bold;font-stretch:normal;font-size:28.575px;font-family:Helvetica;-inkscape-font-specification:'Helvetica Bold';fill:#ffffff;fill-opacity:1">Survey</tspan></tspan></text>
      <g
         transform="matrix(0.39521032,0,0,0.39521032,6.4385504,41.04156)"
         id="g18414">
        <polygon
           id="polygon18406"
           fill="#ffffff"
           fill-opacity="0"
           stroke="#ffffff"
           stroke-width="15"
           points="223.5,7.562 439.5,35.562 439.5,385.563 223.5,413.563 7.5,385.563 7.5,35.562 " />
        <path
           id="path18408"
           fill="#ffffff"
           d="m 126.094,100.422 v 21.562 c -10.521,-8.801 -21.406,-13.203 -32.656,-13.203 -12.396,0 -22.84,4.453 -31.328,13.359 -8.543,8.855 -12.812,19.688 -12.812,32.5 0,12.656 4.27,23.334 12.812,32.031 8.541,8.699 19.01,13.047 31.406,13.047 6.406,0 11.848,-1.041 16.328,-3.125 2.5,-1.041 5.09,-2.447 7.773,-4.219 2.682,-1.77 5.508,-3.906 8.477,-6.406 v 21.953 c -10.418,5.887 -21.355,8.829 -32.812,8.829 -17.24,0 -31.953,-6.016 -44.141,-18.047 -12.136,-12.135 -18.203,-26.77 -18.203,-43.906 0,-15.364 5.078,-29.062 15.234,-41.094 12.5,-14.739 28.672,-22.109 48.516,-22.109 10.832,0 21.3,2.943 31.406,8.828 z" />
        <path
           id="path18410"
           fill="#ffffff"
           d="m 247.996,201.789 54.297,65.625 1.758,-1.953 c 5.859,-6.379 11.393,-12.629 16.602,-18.75 5.206,-6.119 10.221,-12.305 15.039,-18.555 l 29.688,30.469 c -3.646,5.209 -8.432,11.264 -14.355,18.164 -5.927,6.902 -12.988,14.844 -21.191,23.828 l 55.859,68.945 h -56.641 l -30.078,-36.914 c -27.606,28.516 -56.317,42.773 -86.133,42.773 -26.693,0 -49.35,-8.527 -67.969,-25.586 -18.231,-17.188 -27.344,-38.41 -27.344,-63.672 0,-30.078 14.453,-55.078 43.359,-75 l 19.727,-13.477 c 0.26,-0.128 0.714,-0.455 1.367,-0.977 0.65,-0.519 1.562,-1.236 2.734,-2.148 -19.922,-21.222 -29.883,-42.12 -29.883,-62.695 0,-20.312 6.641,-36.847 19.922,-49.609 13.541,-12.759 30.987,-19.141 52.344,-19.141 20.703,0 37.823,6.186 51.367,18.555 13.541,12.372 20.312,27.997 20.312,46.875 0,13.022 -3.711,24.805 -11.133,35.352 -7.293,10.547 -20.507,23.179 -39.648,37.891 z m -36.133,25.586 -2.539,1.758 c -18.622,12.891 -31.317,23.242 -38.086,31.055 -6.641,7.812 -9.961,16.082 -9.961,24.805 0,12.5 5.011,23.959 15.039,34.375 10.416,10.027 21.875,15.039 34.375,15.039 17.578,0 37.823,-11.523 60.742,-34.57 z m 9.766,-57.617 3.711,-2.734 c 6.378,-4.815 11.651,-9.015 15.82,-12.598 4.166,-3.58 7.159,-6.607 8.984,-9.082 3.906,-4.815 5.859,-10.742 5.859,-17.773 0,-7.94 -2.67,-14.386 -8.008,-19.336 -5.341,-4.947 -12.5,-7.422 -21.484,-7.422 -8.203,0 -15.106,2.539 -20.703,7.617 -5.6,4.819 -8.398,11.005 -8.398,18.555 0,8.856 3.516,17.578 10.547,26.172 l 11.328,13.672 c 0.391,0.652 1.172,1.629 2.344,2.929 z" />
        <path
           id="path18412"
           fill="#ffffff"
           d="m 412.875,111.906 -14.766,8.75 c -2.762,-4.791 -5.391,-7.916 -7.891,-9.375 -2.605,-1.666 -5.965,-2.5 -10.078,-2.5 -5.053,0 -9.246,1.433 -12.578,4.297 -3.334,2.812 -5,6.355 -5,10.625 0,5.886 4.375,10.625 13.125,14.219 l 12.031,4.922 c 9.791,3.959 16.953,8.789 21.484,14.492 4.531,5.703 6.798,12.695 6.798,20.976 0,11.094 -3.699,20.262 -11.094,27.5 -7.449,7.293 -16.693,10.938 -27.734,10.938 -10.469,0 -19.115,-3.098 -25.938,-9.297 -6.719,-6.197 -10.912,-14.922 -12.578,-26.172 l 18.438,-4.062 c 0.832,7.084 2.291,11.98 4.375,14.688 3.75,5.209 9.219,7.812 16.406,7.812 5.676,0 10.391,-1.9 14.141,-5.703 3.75,-3.801 5.625,-8.619 5.625,-14.453 0,-2.344 -0.326,-4.492 -0.977,-6.445 -0.652,-1.953 -1.668,-3.75 -3.047,-5.391 -1.381,-1.641 -3.164,-3.176 -5.352,-4.609 -2.188,-1.432 -4.793,-2.799 -7.812,-4.102 l -11.641,-4.844 c -16.512,-6.979 -24.766,-17.188 -24.766,-30.625 0,-9.062 3.463,-16.641 10.391,-22.734 6.926,-6.145 15.547,-9.219 25.859,-9.219 13.907,0 24.766,6.771 32.579,20.312 z" />
      </g>
    </g>
    <text
       xml:space="preserve"
       style="font-style:normal;font-weight:normal;font-size:37.3518px;line-height:0;font-family:sans-serif;fill:#000000;fill-opacity:1;stroke:none;stroke-width:0.933795"
       x="49.744667"
       y="77.66732"
       id="text18436"><tspan
         sodipodi:role="line"
         id="tspan18434"
         x="49.744667"
         y="77.66732"
         style="font-style:normal;font-variant:normal;font-weight:bold;font-stretch:normal;line-height:1.15;font-family:Helvetica;-inkscape-font-specification:'Helvetica Bold';fill:#ffffff;stroke-width:0.933795">Share your tech worker</tspan><tspan
         id="tspan18438"
         sodipodi:role="line"
         x="49.744667"
         y="120.62189"
         style="font-style:normal;font-variant:normal;font-weight:bold;font-stretch:normal;line-height:1.15;font-family:Helvetica;-inkscape-font-specification:'Helvetica Bold';fill:#ffffff;stroke-width:0.933795">compensation, commute, </tspan><tspan
         id="tspan18458"
         sodipodi:role="line"
         x="49.744667"
         y="163.57646"
         style="font-style:normal;font-variant:normal;font-weight:bold;font-stretch:normal;line-height:1.15;font-family:Helvetica;-inkscape-font-specification:'Helvetica Bold';fill:#ffffff;stroke-width:0.933795">work life, and satisfaction.</tspan><tspan
         id="tspan18452"
         sodipodi:role="line"
         x="49.744667"
         y="206.53102"
         style="font-style:normal;font-variant:normal;font-weight:bold;font-stretch:normal;line-height:1.15;font-family:Helvetica;-inkscape-font-specification:'Helvetica Bold';fill:#ffffff;stroke-width:0.933795" /><tspan
         y="249.4856"
         x="49.744667"
         id="tspan18645"
         sodipodi:role="line"
         style="font-style:normal;font-variant:normal;font-weight:bold;font-stretch:normal;line-height:1.15;font-family:Helvetica;-inkscape-font-specification:'Helvetica Bold';fill:#ffffff;stroke-width:0.933795">Together, we will equip you,</tspan><tspan
         y="292.44016"
         x="49.744667"
         id="tspan18647"
         sodipodi:role="line"
         style="font-style:normal;font-variant:normal;font-weight:bold;font-stretch:normal;line-height:1.15;font-family:Helvetica;-inkscape-font-specification:'Helvetica Bold';fill:#ffffff;stroke-width:0.933795">your friends, and coworkers </tspan><tspan
         y="335.39471"
         x="49.744667"
         id="tspan18649"
         sodipodi:role="line"
         style="font-style:normal;font-variant:normal;font-weight:bold;font-stretch:normal;line-height:1.15;font-family:Helvetica;-inkscape-font-specification:'Helvetica Bold';fill:#ffffff;stroke-width:0.933795">to ask for raises, negotiate,</tspan><tspan
         y="378.3493"
         x="49.744667"
         id="tspan18651"
         sodipodi:role="line"
         style="font-style:normal;font-variant:normal;font-weight:bold;font-stretch:normal;line-height:1.15;font-family:Helvetica;-inkscape-font-specification:'Helvetica Bold';fill:#ffffff;stroke-width:0.933795">and improve our industry.</tspan></text>
    <g
       transform="translate(36.556373,-25.550935)"
       id="g18505">
      <text
         xml:space="preserve"
         style="font-style:normal;font-weight:normal;font-size:28.4551px;line-height:1.25;font-family:sans-serif;fill:#000000;fill-opacity:1;stroke:none;stroke-width:0.39521"
         x="130.35617"
         y="472.44995"
         id="text1909"><tspan
           sodipodi:role="line"
           id="tspan1907"
           x="130.35617"
           y="472.44995"
           style="font-style:normal;font-variant:normal;font-weight:500;font-stretch:normal;font-size:28.4551px;font-family:'Libre Franklin';-inkscape-font-specification:'Libre Franklin Medium';fill:#ffffff;stroke-width:0.39521">codeandsupply.co/survey</tspan></text>
      <g
         id="g18482"
         transform="matrix(0.12675394,0,0,0.12675394,58.43855,437.55103)">
        <polygon
           points="439.5,385.563 223.5,413.563 7.5,385.563 7.5,35.562 223.5,7.562 439.5,35.562 "
           stroke-width="15"
           stroke="#ffffff"
           fill-opacity="0"
           fill="#ffffff"
           id="polygon18474" />
        <path
           d="m 126.094,100.422 v 21.562 c -10.521,-8.801 -21.406,-13.203 -32.656,-13.203 -12.396,0 -22.84,4.453 -31.328,13.359 -8.543,8.855 -12.812,19.688 -12.812,32.5 0,12.656 4.27,23.334 12.812,32.031 8.541,8.699 19.01,13.047 31.406,13.047 6.406,0 11.848,-1.041 16.328,-3.125 2.5,-1.041 5.09,-2.447 7.773,-4.219 2.682,-1.77 5.508,-3.906 8.477,-6.406 v 21.953 c -10.418,5.887 -21.355,8.829 -32.812,8.829 -17.24,0 -31.953,-6.016 -44.141,-18.047 -12.136,-12.135 -18.203,-26.77 -18.203,-43.906 0,-15.364 5.078,-29.062 15.234,-41.094 12.5,-14.739 28.672,-22.109 48.516,-22.109 10.832,0 21.3,2.943 31.406,8.828 z"
           fill="#ffffff"
           id="path18476" />
        <path
           d="m 247.996,201.789 54.297,65.625 1.758,-1.953 c 5.859,-6.379 11.393,-12.629 16.602,-18.75 5.206,-6.119 10.221,-12.305 15.039,-18.555 l 29.688,30.469 c -3.646,5.209 -8.432,11.264 -14.355,18.164 -5.927,6.902 -12.988,14.844 -21.191,23.828 l 55.859,68.945 h -56.641 l -30.078,-36.914 c -27.606,28.516 -56.317,42.773 -86.133,42.773 -26.693,0 -49.35,-8.527 -67.969,-25.586 -18.231,-17.188 -27.344,-38.41 -27.344,-63.672 0,-30.078 14.453,-55.078 43.359,-75 l 19.727,-13.477 c 0.26,-0.128 0.714,-0.455 1.367,-0.977 0.65,-0.519 1.562,-1.236 2.734,-2.148 -19.922,-21.222 -29.883,-42.12 -29.883,-62.695 0,-20.312 6.641,-36.847 19.922,-49.609 13.541,-12.759 30.987,-19.141 52.344,-19.141 20.703,0 37.823,6.186 51.367,18.555 13.541,12.372 20.312,27.997 20.312,46.875 0,13.022 -3.711,24.805 -11.133,35.352 -7.293,10.547 -20.507,23.179 -39.648,37.891 z m -36.133,25.586 -2.539,1.758 c -18.622,12.891 -31.317,23.242 -38.086,31.055 -6.641,7.812 -9.961,16.082 -9.961,24.805 0,12.5 5.011,23.959 15.039,34.375 10.416,10.027 21.875,15.039 34.375,15.039 17.578,0 37.823,-11.523 60.742,-34.57 z m 9.766,-57.617 3.711,-2.734 c 6.378,-4.815 11.651,-9.015 15.82,-12.598 4.166,-3.58 7.159,-6.607 8.984,-9.082 3.906,-4.815 5.859,-10.742 5.859,-17.773 0,-7.94 -2.67,-14.386 -8.008,-19.336 -5.341,-4.947 -12.5,-7.422 -21.484,-7.422 -8.203,0 -15.106,2.539 -20.703,7.617 -5.6,4.819 -8.398,11.005 -8.398,18.555 0,8.856 3.516,17.578 10.547,26.172 l 11.328,13.672 c 0.391,0.652 1.172,1.629 2.344,2.929 z"
           fill="#ffffff"
           id="path18478" />
        <path
           d="m 412.875,111.906 -14.766,8.75 c -2.762,-4.791 -5.391,-7.916 -7.891,-9.375 -2.605,-1.666 -5.965,-2.5 -10.078,-2.5 -5.053,0 -9.246,1.433 -12.578,4.297 -3.334,2.812 -5,6.355 -5,10.625 0,5.886 4.375,10.625 13.125,14.219 l 12.031,4.922 c 9.791,3.959 16.953,8.789 21.484,14.492 4.531,5.703 6.798,12.695 6.798,20.976 0,11.094 -3.699,20.262 -11.094,27.5 -7.449,7.293 -16.693,10.938 -27.734,10.938 -10.469,0 -19.115,-3.098 -25.938,-9.297 -6.719,-6.197 -10.912,-14.922 -12.578,-26.172 l 18.438,-4.062 c 0.832,7.084 2.291,11.98 4.375,14.688 3.75,5.209 9.219,7.812 16.406,7.812 5.676,0 10.391,-1.9 14.141,-5.703 3.75,-3.801 5.625,-8.619 5.625,-14.453 0,-2.344 -0.326,-4.492 -0.977,-6.445 -0.652,-1.953 -1.668,-3.75 -3.047,-5.391 -1.381,-1.641 -3.164,-3.176 -5.352,-4.609 -2.188,-1.432 -4.793,-2.799 -7.812,-4.102 l -11.641,-4.844 c -16.512,-6.979 -24.766,-17.188 -24.766,-30.625 0,-9.062 3.463,-16.641 10.391,-22.734 6.926,-6.145 15.547,-9.219 25.859,-9.219 13.907,0 24.766,6.771 32.579,20.312 z"
           fill="#ffffff"
           id="path18480" />
      </g>
    </g>
  </g>
</svg>
