<svg xmlns="http://www.w3.org/2000/svg" width="600" height="600"><path d="M300 0A300 300 0 0 0 0 300a300 300 0 0 0 300 300 300 300 0 0 0 300-300A300 300 0 0 0 300 0m0 60c132.548 0 240 107.452 240 240S432.548 540 300 540 60 432.548 60 300 167.452 60 300 60m0 20C178.497 80 80 178.497 80 300c0 42.41 12.01 82.005 32.8 115.6 24.216-3.236 48.092-8.979 71.151-17.05-4.157-4.567-8.043-9.39-11.576-14.45-15.829-22.675-25.067-49.76-27.275-77.325-4.418-55.129 19.666-110.52 58.625-149.775 22.102-22.27 49.66-40.209 80.525-45.85 15.433-2.82 31.527-2.498 46.65 1.674 15.124 4.173 29.23 12.27 39.975 23.701 10.999 11.7 18.268 26.681 21.55 42.4 3.283 15.72 2.687 32.13-.825 47.8-7.026 31.34-25.271 59.099-46.125 83.525-31.772 37.213-70.584 68.29-113.6 91.6 16.231 8.999 34.54 14.161 53.074 15.224 24.67 1.415 49.447-4.346 71.975-14.5s42.922-24.574 61.601-40.75c38.884-33.673 70.812-75.343 93.25-121.625C485.723 147.758 400.774 80 300 80m1.398 44.45c-15.465-.022-30.782 4.481-44.324 11.95-27.084 14.938-46.43 40.968-60.625 68.45-12.241 23.701-21.355 49.294-23.9 75.85-2.545 26.554 1.781 54.146 14.9 77.374 6.279 11.116 14.515 21.09 24.125 29.5a357 357 0 0 0 13.725-6.449c44.164-22.001 83.874-53.43 113.75-92.7 16.873-22.177 30.839-47.565 34.025-75.25 1.594-13.841.395-28.098-4.275-41.226s-12.908-25.076-24.026-33.474c-12.34-9.323-27.91-14.007-43.375-14.026m216.625 146.103c-20.65 38.898-47.776 74.346-79.949 104.422-27.007 25.247-57.989 46.956-92.926 59.05-34.936 12.095-74.127 14.01-108.648.776-11.987-4.596-23.266-10.974-33.477-18.75-23.35 10.343-47.692 18.468-72.6 24.125C170.778 488.936 231.764 520 300 520c121.503 0 220-98.497 220-220 0-9.986-.688-19.814-1.977-29.447" style="fill:#000;fill-opacity:1;stroke-width:4.62852"/></svg>