<svg xmlns="http://www.w3.org/2000/svg" width="327.567" height="169.533" viewBox="0 0 86.669 44.856"><path d="M105.73 127.028h.154l-.007-1.182h-.158l-.43.967-.449-.967h-.158v1.182h.155v-.871l.402.857h.085l.405-.857zm-1.655-1.044v1.044h-.159v-1.044h-.392v-.138h.939v.138zm-17.632 6.043 1.764-3.753v3.933H89.5v-6.413h-1.3l-2.092 4.635-2.17-4.635h-1.295v6.413h1.295v-3.898l1.743 3.718zm-8.252-4.702-.882 2.571h1.79zm-1.245 3.644-.43 1.238H75.1l2.42-6.42h1.355l2.49 6.42h-1.464l-.434-1.249zm-6.018-2.58v-1.445l3.002.007v-1.157h-4.352v6.413h4.352v-1.157h-3.002v-1.503h2.586v-1.157zm-4.706-1.442v5.26h-1.356v-5.26h-1.958v-1.153h5.27v1.153zm-5.167.367.58-1.002a3.7 3.7 0 0 0-2.166-.628c-1.377 0-2.345.685-2.345 1.88 0 1.059.726 1.514 1.772 1.86l.199.067c.8.26 1.288.42 1.288.87 0 .424-.378.714-1.162.714a4 4 0 0 1-1.782-.46l-.418 1.116a4.6 4.6 0 0 0 2.271.592c1.482 0 2.518-.733 2.518-2.042 0-.956-.604-1.39-1.654-1.76a16 16 0 0 0-.434-.152c-.732-.247-1.2-.406-1.2-.857 0-.441.37-.688.968-.688.559.01 1.102.18 1.565.49m41.76-1.044-.307.522a3.2 3.2 0 0 0-1.696-.526c-.85 0-1.394.388-1.394 1.076 0 .685.73.977 1.68 1.355l.222.092c1.012.405 1.665.822 1.665 1.703 0 1.084-.822 1.831-2.237 1.831a4.23 4.23 0 0 1-2.13-.589l.26-.554a3.84 3.84 0 0 0 1.835.505c1.125 0 1.577-.494 1.577-1.125 0-.66-.642-.964-1.616-1.334-1.044-.402-1.947-.8-1.947-1.901 0-.946.79-1.64 2.07-1.64a3.53 3.53 0 0 1 2.018.585m-8.558 5.45c-1.252 0-2.321-.952-2.321-2.737v-.004c0-1.814 1.107-2.674 2.356-2.674 1.253 0 2.346.85 2.346 2.677 0 1.831-1.125 2.738-2.381 2.738m.032.61c1.499 0 3.048-1.037 3.048-3.347 0-2.315-1.549-3.299-3.048-3.299s-3.059.98-3.059 3.299 1.56 3.347 3.059 3.347m-48.068-5.482a1.59 1.59 0 0 1 .986-1.468c.292-.12.613-.151.922-.091a1.587 1.587 0 0 1-.311 3.147 1.6 1.6 0 0 1-1.136-.466 1.58 1.58 0 0 1-.47-1.125zm3.709 0c0-.42-.125-.829-.358-1.174a2.1 2.1 0 0 0-.954-.78 2.15 2.15 0 0 0-1.228-.12 2.12 2.12 0 0 0-1.67 1.662 2.1 2.1 0 0 0 .122 1.22 2.13 2.13 0 0 0 1.963 1.305c.563 0 1.103-.225 1.502-.62a2.1 2.1 0 0 0 .623-1.493m-9.08 6.093 1.038.427c.16.067.332.098.506.098a1.2 1.2 0 0 0 .507-.098 1.314 1.314 0 0 0 .72-1.718 1.33 1.33 0 0 0-.715-.713l-1.074-.441a1.8 1.8 0 0 1 1.92.42 1.78 1.78 0 0 1-.25 2.716 1.807 1.807 0 0 1-2.652-.691m-1.567-10.11a8.48 8.48 0 0 1 5.733-2.227l-.004-.004a8.5 8.5 0 0 1 4.453 1.263 8.39 8.39 0 0 1 3.967 7.93 8.4 8.4 0 0 1-1.676 4.294 8.44 8.44 0 0 1-3.698 2.77 8.49 8.49 0 0 1-8.751-1.638 8.4 8.4 0 0 1-2.431-3.92l3.241 1.334a2.39 2.39 0 0 0 2.584 1.901 2.4 2.4 0 0 0 1.539-.772 2.37 2.37 0 0 0 .619-1.598v-.113l2.874-2.039h.072a3.2 3.2 0 0 0 2.948-1.958 3.16 3.16 0 0 0-.69-3.457 3.198 3.198 0 0 0-4.908.48 3.16 3.16 0 0 0-.538 1.76v.043l-2.015 2.906h-.134c-.48 0-.95.145-1.348.413l-4.531-1.862a8.4 8.4 0 0 1 2.694-5.507zm4.999-14.948q-.334.322-.967.321h-1v-2.328h1q1.3 0 1.3 1.104 0 .581-.333.903m-2.762-2.695v5.951h.795v-2.244h1.06q.667.001 1.138-.257.47-.26.71-.695.24-.443.239-.988 0-.815-.539-1.291-.539-.477-1.556-.476zm7.869.61q-.566 0-1.026.265-.462.253-.736.783-.265.524-.265 1.291 0 .756.265 1.302c.177.356.416.631.718.815q.462.275 1.035.275.564 0 1.026-.265.471-.274.753-.808.282-.545.282-1.319 0-.756-.274-1.284a1.85 1.85 0 0 0-.744-.79 2.04 2.04 0 0 0-1.034-.265m.017-.723q.752.002 1.402.331a2.55 2.55 0 0 1 1.052 1.03q.41.69.41 1.712c0 .677-.137 1.255-.41 1.725a2.6 2.6 0 0 1-1.06 1.037 3.05 3.05 0 0 1-2.805 0 2.63 2.63 0 0 1-1.07-1.037c-.267-.47-.401-1.048-.401-1.725q0-1.023.402-1.711.41-.698 1.069-1.03.66-.331 1.41-.332m11.274.113-1.428 4.89-1.48-4.89h-.743l-1.505 4.914-1.411-4.914h-.855l1.83 5.951h.812l1.471-4.762 1.48 4.762h.812l1.838-5.951zm2.164 0h3.814v.688H63.64v1.88h2.659v.695h-2.66v1.975h3.019v.713h-3.814zm7.6 3.002h-1.34v-2.314h1.17q.742-.001 1.07.278.323.282.324.85 0 .523-.324.854-.318.33-.9.332m1.44 2.95h.896l-1.496-2.4q.599-.203.907-.67.315-.478.314-1.14 0-.792-.512-1.266c-.335-.318-.882-.476-1.633-.476h-2.052v5.951h.795v-2.261h1.401zm2.32-5.952h3.814v.688h-3.016v1.88h2.657v.695h-2.657v1.975h3.016v.713h-3.813Zm6.266 5.22V105.9h.875q1.092 0 1.634.537.545.534.546 1.682 0 2.291-2.18 2.29zm2.449-4.906q-.66-.316-1.507-.314h-1.746v5.951h1.746q.838 0 1.507-.332a2.5 2.5 0 0 0 1.05-1.019q.392-.68.392-1.669 0-.995-.391-1.647a2.3 2.3 0 0 0-1.051-.97m8.05 4.967q.683 0 1.016-.265.334-.27.335-.74 0-1.027-1.32-1.027h-1.273v2.032zm-1.242-4.611v1.947h1.01q.571 0 .906-.271.334-.27.335-.748 0-.928-1.267-.928zm2.173 2.134q.547.12.896.512.36.381.36.984 0 .819-.571 1.235-.576.417-1.531.416h-2.131v-5.951h1.908q.957 0 1.454.38.496.376.494 1.063 0 .442-.237.811-.242.355-.642.55m4.149 3.147h.804v-2.37l2.078-3.581h-.889l-1.573 2.822-1.574-2.822h-.942l2.096 3.57zm15.864 29.492v-25.689H28.197v25.69c0 .74.253 1.45.702 1.971.45.522 1.06.815 1.696.815h78.92c.638 0 1.248-.293 1.696-.815.452-.522.702-1.23.702-1.972m-2.399 4.502H30.595c-1.027-.004-2.011-.476-2.737-1.32-.726-.843-1.134-1.99-1.135-3.182v-35.849c0-1.196.408-2.339 1.134-3.186.726-.843 1.71-1.319 2.738-1.319h78.92c.511 0 1.016.116 1.488.346.47.226.896.56 1.256.98.364.42.646.918.84 1.465.194.55.296 1.135.293 1.728v35.835c0 1.196-.41 2.34-1.136 3.182-.727.844-1.711 1.32-2.741 1.32" style="fill:#201c1c;fill-opacity:1;fill-rule:evenodd;stroke:none;stroke-width:.0352777" transform="translate(-26.723 -100.277)"/></svg>