<?xml version="1.0" standalone="no"?>
<svg xmlns="http://www.w3.org/2000/svg" width="256" height="256"><defs><clipPath id="clip-path-dot-color"><rect x="17" y="65" width="6" height="6" transform="rotate(0,20,68)"/><rect x="17" y="77" width="6" height="6" transform="rotate(0,20,80)"/><rect x="17" y="89" width="6" height="6" transform="rotate(0,20,92)"/><rect x="17" y="107" width="6" height="6" transform="rotate(0,20,110)"/><rect x="17" y="143" width="6" height="6" transform="rotate(0,20,146)"/><rect x="17" y="149" width="6" height="6" transform="rotate(0,20,152)"/><rect x="17" y="173" width="6" height="6" transform="rotate(0,20,176)"/><rect x="23" y="65" width="6" height="6" transform="rotate(0,26,68)"/><rect x="23" y="77" width="6" height="6" transform="rotate(0,26,80)"/><rect x="23" y="83" width="6" height="6" transform="rotate(0,26,86)"/><rect x="23" y="89" width="6" height="6" transform="rotate(0,26,92)"/><rect x="23" y="113" width="6" height="6" transform="rotate(0,26,116)"/><rect x="23" y="125" width="6" height="6" transform="rotate(0,26,128)"/><rect x="23" y="131" width="6" height="6" transform="rotate(0,26,134)"/><rect x="23" y="137" width="6" height="6" transform="rotate(0,26,140)"/><rect x="23" y="143" width="6" height="6" transform="rotate(0,26,146)"/><rect x="23" y="149" width="6" height="6" transform="rotate(0,26,152)"/><rect x="23" y="167" width="6" height="6" transform="rotate(0,26,170)"/><rect x="23" y="173" width="6" height="6" transform="rotate(0,26,176)"/><rect x="29" y="65" width="6" height="6" transform="rotate(0,32,68)"/><rect x="29" y="71" width="6" height="6" transform="rotate(0,32,74)"/><rect x="29" y="77" width="6" height="6" transform="rotate(0,32,80)"/><rect x="29" y="101" width="6" height="6" transform="rotate(0,32,104)"/><rect x="29" y="107" width="6" height="6" transform="rotate(0,32,110)"/><rect x="29" y="113" width="6" height="6" transform="rotate(0,32,116)"/><rect x="29" y="131" width="6" height="6" transform="rotate(0,32,134)"/><rect x="29" y="143" width="6" height="6" transform="rotate(0,32,146)"/><rect x="29" y="155" width="6" height="6" transform="rotate(0,32,158)"/><rect x="29" y="167" width="6" height="6" transform="rotate(0,32,170)"/><rect x="29" y="179" width="6" height="6" transform="rotate(0,32,182)"/><rect x="29" y="185" width="6" height="6" transform="rotate(0,32,188)"/><rect x="35" y="71" width="6" height="6" transform="rotate(0,38,74)"/><rect x="35" y="83" width="6" height="6" transform="rotate(0,38,86)"/><rect x="35" y="89" width="6" height="6" transform="rotate(0,38,92)"/><rect x="35" y="119" width="6" height="6" transform="rotate(0,38,122)"/><rect x="35" y="125" width="6" height="6" transform="rotate(0,38,128)"/><rect x="35" y="131" width="6" height="6" transform="rotate(0,38,134)"/><rect x="35" y="143" width="6" height="6" transform="rotate(0,38,146)"/><rect x="35" y="155" width="6" height="6" transform="rotate(0,38,158)"/><rect x="35" y="167" width="6" height="6" transform="rotate(0,38,170)"/><rect x="35" y="179" width="6" height="6" transform="rotate(0,38,182)"/><rect x="35" y="185" width="6" height="6" transform="rotate(0,38,188)"/><rect x="41" y="65" width="6" height="6" transform="rotate(0,44,68)"/><rect x="41" y="71" width="6" height="6" transform="rotate(0,44,74)"/><rect x="41" y="77" width="6" height="6" transform="rotate(0,44,80)"/><rect x="41" y="95" width="6" height="6" transform="rotate(0,44,98)"/><rect x="41" y="101" width="6" height="6" transform="rotate(0,44,104)"/><rect x="41" y="107" width="6" height="6" transform="rotate(0,44,110)"/><rect x="41" y="119" width="6" height="6" transform="rotate(0,44,122)"/><rect x="41" y="131" width="6" height="6" transform="rotate(0,44,134)"/><rect x="41" y="137" width="6" height="6" transform="rotate(0,44,140)"/><rect x="41" y="143" width="6" height="6" transform="rotate(0,44,146)"/><rect x="41" y="173" width="6" height="6" transform="rotate(0,44,176)"/><rect x="41" y="185" width="6" height="6" transform="rotate(0,44,188)"/><rect x="47" y="89" width="6" height="6" transform="rotate(0,50,92)"/><rect x="47" y="95" width="6" height="6" transform="rotate(0,50,98)"/><rect x="47" y="101" width="6" height="6" transform="rotate(0,50,104)"/><rect x="47" y="107" width="6" height="6" transform="rotate(0,50,110)"/><rect x="47" y="119" width="6" height="6" transform="rotate(0,50,122)"/><rect x="47" y="155" width="6" height="6" transform="rotate(0,50,158)"/><rect x="53" y="65" width="6" height="6" transform="rotate(0,56,68)"/><rect x="53" y="77" width="6" height="6" transform="rotate(0,56,80)"/><rect x="53" y="89" width="6" height="6" transform="rotate(0,56,92)"/><rect x="53" y="101" width="6" height="6" transform="rotate(0,56,104)"/><rect x="53" y="113" width="6" height="6" transform="rotate(0,56,116)"/><rect x="53" y="125" width="6" height="6" transform="rotate(0,56,128)"/><rect x="53" y="137" width="6" height="6" transform="rotate(0,56,140)"/><rect x="53" y="149" width="6" height="6" transform="rotate(0,56,152)"/><rect x="53" y="161" width="6" height="6" transform="rotate(0,56,164)"/><rect x="53" y="173" width="6" height="6" transform="rotate(0,56,176)"/><rect x="53" y="185" width="6" height="6" transform="rotate(0,56,188)"/><rect x="59" y="77" width="6" height="6" transform="rotate(0,62,80)"/><rect x="59" y="89" width="6" height="6" transform="rotate(0,62,92)"/><rect x="59" y="95" width="6" height="6" transform="rotate(0,62,98)"/><rect x="59" y="113" width="6" height="6" transform="rotate(0,62,116)"/><rect x="59" y="125" width="6" height="6" transform="rotate(0,62,128)"/><rect x="59" y="131" width="6" height="6" transform="rotate(0,62,134)"/><rect x="59" y="137" width="6" height="6" transform="rotate(0,62,140)"/><rect x="59" y="155" width="6" height="6" transform="rotate(0,62,158)"/><rect x="59" y="167" width="6" height="6" transform="rotate(0,62,170)"/><rect x="59" y="179" width="6" height="6" transform="rotate(0,62,182)"/><rect x="65" y="17" width="6" height="6" transform="rotate(0,68,20)"/><rect x="65" y="35" width="6" height="6" transform="rotate(0,68,38)"/><rect x="65" y="41" width="6" height="6" transform="rotate(0,68,44)"/><rect x="65" y="47" width="6" height="6" transform="rotate(0,68,50)"/><rect x="65" y="53" width="6" height="6" transform="rotate(0,68,56)"/><rect x="65" y="59" width="6" height="6" transform="rotate(0,68,62)"/><rect x="65" y="65" width="6" height="6" transform="rotate(0,68,68)"/><rect x="65" y="77" width="6" height="6" transform="rotate(0,68,80)"/><rect x="65" y="83" width="6" height="6" transform="rotate(0,68,86)"/><rect x="65" y="89" width="6" height="6" transform="rotate(0,68,92)"/><rect x="65" y="101" width="6" height="6" transform="rotate(0,68,104)"/><rect x="65" y="113" width="6" height="6" transform="rotate(0,68,116)"/><rect x="65" y="119" width="6" height="6" transform="rotate(0,68,122)"/><rect x="65" y="131" width="6" height="6" transform="rotate(0,68,134)"/><rect x="65" y="155" width="6" height="6" transform="rotate(0,68,158)"/><rect x="65" y="161" width="6" height="6" transform="rotate(0,68,164)"/><rect x="65" y="173" width="6" height="6" transform="rotate(0,68,176)"/><rect x="65" y="179" width="6" height="6" transform="rotate(0,68,182)"/><rect x="65" y="185" width="6" height="6" transform="rotate(0,68,188)"/><rect x="65" y="191" width="6" height="6" transform="rotate(0,68,194)"/><rect x="65" y="209" width="6" height="6" transform="rotate(0,68,212)"/><rect x="65" y="221" width="6" height="6" transform="rotate(0,68,224)"/><rect x="65" y="227" width="6" height="6" transform="rotate(0,68,230)"/><rect x="65" y="233" width="6" height="6" transform="rotate(0,68,236)"/><rect x="71" y="29" width="6" height="6" transform="rotate(0,74,32)"/><rect x="71" y="35" width="6" height="6" transform="rotate(0,74,38)"/><rect x="71" y="41" width="6" height="6" transform="rotate(0,74,44)"/><rect x="71" y="77" width="6" height="6" transform="rotate(0,74,80)"/><rect x="71" y="83" width="6" height="6" transform="rotate(0,74,86)"/><rect x="71" y="89" width="6" height="6" transform="rotate(0,74,92)"/><rect x="71" y="95" width="6" height="6" transform="rotate(0,74,98)"/><rect x="71" y="125" width="6" height="6" transform="rotate(0,74,128)"/><rect x="71" y="131" width="6" height="6" transform="rotate(0,74,134)"/><rect x="71" y="149" width="6" height="6" transform="rotate(0,74,152)"/><rect x="71" y="155" width="6" height="6" transform="rotate(0,74,158)"/><rect x="71" y="161" width="6" height="6" transform="rotate(0,74,164)"/><rect x="71" y="167" width="6" height="6" transform="rotate(0,74,170)"/><rect x="71" y="173" width="6" height="6" transform="rotate(0,74,176)"/><rect x="71" y="179" width="6" height="6" transform="rotate(0,74,182)"/><rect x="71" y="191" width="6" height="6" transform="rotate(0,74,194)"/><rect x="71" y="203" width="6" height="6" transform="rotate(0,74,206)"/><rect x="71" y="209" width="6" height="6" transform="rotate(0,74,212)"/><rect x="71" y="215" width="6" height="6" transform="rotate(0,74,218)"/><rect x="71" y="221" width="6" height="6" transform="rotate(0,74,224)"/><rect x="71" y="227" width="6" height="6" transform="rotate(0,74,230)"/><rect x="77" y="23" width="6" height="6" transform="rotate(0,80,26)"/><rect x="77" y="35" width="6" height="6" transform="rotate(0,80,38)"/><rect x="77" y="41" width="6" height="6" transform="rotate(0,80,44)"/><rect x="77" y="53" width="6" height="6" transform="rotate(0,80,56)"/><rect x="77" y="71" width="6" height="6" transform="rotate(0,80,74)"/><rect x="77" y="77" width="6" height="6" transform="rotate(0,80,80)"/><rect x="77" y="101" width="6" height="6" transform="rotate(0,80,104)"/><rect x="77" y="125" width="6" height="6" transform="rotate(0,80,128)"/><rect x="77" y="137" width="6" height="6" transform="rotate(0,80,140)"/><rect x="77" y="143" width="6" height="6" transform="rotate(0,80,146)"/><rect x="77" y="149" width="6" height="6" transform="rotate(0,80,152)"/><rect x="77" y="155" width="6" height="6" transform="rotate(0,80,158)"/><rect x="77" y="173" width="6" height="6" transform="rotate(0,80,176)"/><rect x="77" y="179" width="6" height="6" transform="rotate(0,80,182)"/><rect x="77" y="197" width="6" height="6" transform="rotate(0,80,200)"/><rect x="77" y="203" width="6" height="6" transform="rotate(0,80,206)"/><rect x="77" y="215" width="6" height="6" transform="rotate(0,80,218)"/><rect x="77" y="233" width="6" height="6" transform="rotate(0,80,236)"/><rect x="83" y="17" width="6" height="6" transform="rotate(0,86,20)"/><rect x="83" y="29" width="6" height="6" transform="rotate(0,86,32)"/><rect x="83" y="47" width="6" height="6" transform="rotate(0,86,50)"/><rect x="83" y="77" width="6" height="6" transform="rotate(0,86,80)"/><rect x="83" y="95" width="6" height="6" transform="rotate(0,86,98)"/><rect x="83" y="107" width="6" height="6" transform="rotate(0,86,110)"/><rect x="83" y="119" width="6" height="6" transform="rotate(0,86,122)"/><rect x="83" y="125" width="6" height="6" transform="rotate(0,86,128)"/><rect x="83" y="131" width="6" height="6" transform="rotate(0,86,134)"/><rect x="83" y="137" width="6" height="6" transform="rotate(0,86,140)"/><rect x="83" y="173" width="6" height="6" transform="rotate(0,86,176)"/><rect x="83" y="179" width="6" height="6" transform="rotate(0,86,182)"/><rect x="83" y="203" width="6" height="6" transform="rotate(0,86,206)"/><rect x="83" y="215" width="6" height="6" transform="rotate(0,86,218)"/><rect x="83" y="221" width="6" height="6" transform="rotate(0,86,224)"/><rect x="83" y="227" width="6" height="6" transform="rotate(0,86,230)"/><rect x="83" y="233" width="6" height="6" transform="rotate(0,86,236)"/><rect x="89" y="17" width="6" height="6" transform="rotate(0,92,20)"/><rect x="89" y="35" width="6" height="6" transform="rotate(0,92,38)"/><rect x="89" y="41" width="6" height="6" transform="rotate(0,92,44)"/><rect x="89" y="53" width="6" height="6" transform="rotate(0,92,56)"/><rect x="89" y="71" width="6" height="6" transform="rotate(0,92,74)"/><rect x="89" y="95" width="6" height="6" transform="rotate(0,92,98)"/><rect x="89" y="101" width="6" height="6" transform="rotate(0,92,104)"/><rect x="89" y="125" width="6" height="6" transform="rotate(0,92,128)"/><rect x="89" y="155" width="6" height="6" transform="rotate(0,92,158)"/><rect x="89" y="161" width="6" height="6" transform="rotate(0,92,164)"/><rect x="89" y="185" width="6" height="6" transform="rotate(0,92,188)"/><rect x="89" y="197" width="6" height="6" transform="rotate(0,92,200)"/><rect x="89" y="233" width="6" height="6" transform="rotate(0,92,236)"/><rect x="95" y="17" width="6" height="6" transform="rotate(0,98,20)"/><rect x="95" y="23" width="6" height="6" transform="rotate(0,98,26)"/><rect x="95" y="29" width="6" height="6" transform="rotate(0,98,32)"/><rect x="95" y="65" width="6" height="6" transform="rotate(0,98,68)"/><rect x="95" y="71" width="6" height="6" transform="rotate(0,98,74)"/><rect x="95" y="95" width="6" height="6" transform="rotate(0,98,98)"/><rect x="95" y="107" width="6" height="6" transform="rotate(0,98,110)"/><rect x="95" y="119" width="6" height="6" transform="rotate(0,98,122)"/><rect x="95" y="137" width="6" height="6" transform="rotate(0,98,140)"/><rect x="95" y="155" width="6" height="6" transform="rotate(0,98,158)"/><rect x="95" y="161" width="6" height="6" transform="rotate(0,98,164)"/><rect x="95" y="167" width="6" height="6" transform="rotate(0,98,170)"/><rect x="95" y="179" width="6" height="6" transform="rotate(0,98,182)"/><rect x="95" y="185" width="6" height="6" transform="rotate(0,98,188)"/><rect x="95" y="209" width="6" height="6" transform="rotate(0,98,212)"/><rect x="95" y="215" width="6" height="6" transform="rotate(0,98,218)"/><rect x="95" y="227" width="6" height="6" transform="rotate(0,98,230)"/><rect x="101" y="29" width="6" height="6" transform="rotate(0,104,32)"/><rect x="101" y="35" width="6" height="6" transform="rotate(0,104,38)"/><rect x="101" y="47" width="6" height="6" transform="rotate(0,104,50)"/><rect x="101" y="53" width="6" height="6" transform="rotate(0,104,56)"/><rect x="101" y="59" width="6" height="6" transform="rotate(0,104,62)"/><rect x="101" y="65" width="6" height="6" transform="rotate(0,104,68)"/><rect x="101" y="71" width="6" height="6" transform="rotate(0,104,74)"/><rect x="101" y="77" width="6" height="6" transform="rotate(0,104,80)"/><rect x="101" y="101" width="6" height="6" transform="rotate(0,104,104)"/><rect x="101" y="107" width="6" height="6" transform="rotate(0,104,110)"/><rect x="101" y="131" width="6" height="6" transform="rotate(0,104,134)"/><rect x="101" y="137" width="6" height="6" transform="rotate(0,104,140)"/><rect x="101" y="143" width="6" height="6" transform="rotate(0,104,146)"/><rect x="101" y="149" width="6" height="6" transform="rotate(0,104,152)"/><rect x="101" y="173" width="6" height="6" transform="rotate(0,104,176)"/><rect x="101" y="179" width="6" height="6" transform="rotate(0,104,182)"/><rect x="101" y="185" width="6" height="6" transform="rotate(0,104,188)"/><rect x="101" y="191" width="6" height="6" transform="rotate(0,104,194)"/><rect x="101" y="197" width="6" height="6" transform="rotate(0,104,200)"/><rect x="101" y="209" width="6" height="6" transform="rotate(0,104,212)"/><rect x="101" y="215" width="6" height="6" transform="rotate(0,104,218)"/><rect x="101" y="221" width="6" height="6" transform="rotate(0,104,224)"/><rect x="101" y="227" width="6" height="6" transform="rotate(0,104,230)"/><rect x="101" y="233" width="6" height="6" transform="rotate(0,104,236)"/><rect x="107" y="17" width="6" height="6" transform="rotate(0,110,20)"/><rect x="107" y="23" width="6" height="6" transform="rotate(0,110,26)"/><rect x="107" y="47" width="6" height="6" transform="rotate(0,110,50)"/><rect x="107" y="83" width="6" height="6" transform="rotate(0,110,86)"/><rect x="107" y="89" width="6" height="6" transform="rotate(0,110,92)"/><rect x="107" y="95" width="6" height="6" transform="rotate(0,110,98)"/><rect x="107" y="101" width="6" height="6" transform="rotate(0,110,104)"/><rect x="107" y="137" width="6" height="6" transform="rotate(0,110,140)"/><rect x="107" y="155" width="6" height="6" transform="rotate(0,110,158)"/><rect x="107" y="179" width="6" height="6" transform="rotate(0,110,182)"/><rect x="107" y="185" width="6" height="6" transform="rotate(0,110,188)"/><rect x="107" y="191" width="6" height="6" transform="rotate(0,110,194)"/><rect x="107" y="203" width="6" height="6" transform="rotate(0,110,206)"/><rect x="107" y="215" width="6" height="6" transform="rotate(0,110,218)"/><rect x="107" y="221" width="6" height="6" transform="rotate(0,110,224)"/><rect x="107" y="233" width="6" height="6" transform="rotate(0,110,236)"/><rect x="113" y="41" width="6" height="6" transform="rotate(0,116,44)"/><rect x="113" y="53" width="6" height="6" transform="rotate(0,116,56)"/><rect x="113" y="59" width="6" height="6" transform="rotate(0,116,62)"/><rect x="113" y="71" width="6" height="6" transform="rotate(0,116,74)"/><rect x="113" y="89" width="6" height="6" transform="rotate(0,116,92)"/><rect x="113" y="95" width="6" height="6" transform="rotate(0,116,98)"/><rect x="113" y="107" width="6" height="6" transform="rotate(0,116,110)"/><rect x="113" y="113" width="6" height="6" transform="rotate(0,116,116)"/><rect x="113" y="137" width="6" height="6" transform="rotate(0,116,140)"/><rect x="113" y="149" width="6" height="6" transform="rotate(0,116,152)"/><rect x="113" y="155" width="6" height="6" transform="rotate(0,116,158)"/><rect x="113" y="161" width="6" height="6" transform="rotate(0,116,164)"/><rect x="113" y="167" width="6" height="6" transform="rotate(0,116,170)"/><rect x="113" y="179" width="6" height="6" transform="rotate(0,116,182)"/><rect x="113" y="197" width="6" height="6" transform="rotate(0,116,200)"/><rect x="113" y="203" width="6" height="6" transform="rotate(0,116,206)"/><rect x="113" y="221" width="6" height="6" transform="rotate(0,116,224)"/><rect x="113" y="227" width="6" height="6" transform="rotate(0,116,230)"/><rect x="119" y="29" width="6" height="6" transform="rotate(0,122,32)"/><rect x="119" y="47" width="6" height="6" transform="rotate(0,122,50)"/><rect x="119" y="59" width="6" height="6" transform="rotate(0,122,62)"/><rect x="119" y="71" width="6" height="6" transform="rotate(0,122,74)"/><rect x="119" y="89" width="6" height="6" transform="rotate(0,122,92)"/><rect x="119" y="95" width="6" height="6" transform="rotate(0,122,98)"/><rect x="119" y="101" width="6" height="6" transform="rotate(0,122,104)"/><rect x="119" y="113" width="6" height="6" transform="rotate(0,122,116)"/><rect x="119" y="125" width="6" height="6" transform="rotate(0,122,128)"/><rect x="119" y="131" width="6" height="6" transform="rotate(0,122,134)"/><rect x="119" y="179" width="6" height="6" transform="rotate(0,122,182)"/><rect x="119" y="203" width="6" height="6" transform="rotate(0,122,206)"/><rect x="119" y="215" width="6" height="6" transform="rotate(0,122,218)"/><rect x="119" y="221" width="6" height="6" transform="rotate(0,122,224)"/><rect x="125" y="17" width="6" height="6" transform="rotate(0,128,20)"/><rect x="125" y="23" width="6" height="6" transform="rotate(0,128,26)"/><rect x="125" y="35" width="6" height="6" transform="rotate(0,128,38)"/><rect x="125" y="41" width="6" height="6" transform="rotate(0,128,44)"/><rect x="125" y="53" width="6" height="6" transform="rotate(0,128,56)"/><rect x="125" y="77" width="6" height="6" transform="rotate(0,128,80)"/><rect x="125" y="83" width="6" height="6" transform="rotate(0,128,86)"/><rect x="125" y="107" width="6" height="6" transform="rotate(0,128,110)"/><rect x="125" y="119" width="6" height="6" transform="rotate(0,128,122)"/><rect x="125" y="125" width="6" height="6" transform="rotate(0,128,128)"/><rect x="125" y="131" width="6" height="6" transform="rotate(0,128,134)"/><rect x="125" y="137" width="6" height="6" transform="rotate(0,128,140)"/><rect x="125" y="149" width="6" height="6" transform="rotate(0,128,152)"/><rect x="125" y="155" width="6" height="6" transform="rotate(0,128,158)"/><rect x="125" y="161" width="6" height="6" transform="rotate(0,128,164)"/><rect x="125" y="179" width="6" height="6" transform="rotate(0,128,182)"/><rect x="125" y="197" width="6" height="6" transform="rotate(0,128,200)"/><rect x="125" y="215" width="6" height="6" transform="rotate(0,128,218)"/><rect x="125" y="221" width="6" height="6" transform="rotate(0,128,224)"/><rect x="125" y="233" width="6" height="6" transform="rotate(0,128,236)"/><rect x="131" y="29" width="6" height="6" transform="rotate(0,134,32)"/><rect x="131" y="35" width="6" height="6" transform="rotate(0,134,38)"/><rect x="131" y="41" width="6" height="6" transform="rotate(0,134,44)"/><rect x="131" y="59" width="6" height="6" transform="rotate(0,134,62)"/><rect x="131" y="65" width="6" height="6" transform="rotate(0,134,68)"/><rect x="131" y="71" width="6" height="6" transform="rotate(0,134,74)"/><rect x="131" y="101" width="6" height="6" transform="rotate(0,134,104)"/><rect x="131" y="137" width="6" height="6" transform="rotate(0,134,140)"/><rect x="131" y="155" width="6" height="6" transform="rotate(0,134,158)"/><rect x="131" y="161" width="6" height="6" transform="rotate(0,134,164)"/><rect x="131" y="167" width="6" height="6" transform="rotate(0,134,170)"/><rect x="131" y="173" width="6" height="6" transform="rotate(0,134,176)"/><rect x="131" y="179" width="6" height="6" transform="rotate(0,134,182)"/><rect x="131" y="185" width="6" height="6" transform="rotate(0,134,188)"/><rect x="131" y="191" width="6" height="6" transform="rotate(0,134,194)"/><rect x="131" y="197" width="6" height="6" transform="rotate(0,134,200)"/><rect x="131" y="215" width="6" height="6" transform="rotate(0,134,218)"/><rect x="131" y="233" width="6" height="6" transform="rotate(0,134,236)"/><rect x="137" y="17" width="6" height="6" transform="rotate(0,140,20)"/><rect x="137" y="23" width="6" height="6" transform="rotate(0,140,26)"/><rect x="137" y="35" width="6" height="6" transform="rotate(0,140,38)"/><rect x="137" y="47" width="6" height="6" transform="rotate(0,140,50)"/><rect x="137" y="53" width="6" height="6" transform="rotate(0,140,56)"/><rect x="137" y="65" width="6" height="6" transform="rotate(0,140,68)"/><rect x="137" y="77" width="6" height="6" transform="rotate(0,140,80)"/><rect x="137" y="83" width="6" height="6" transform="rotate(0,140,86)"/><rect x="137" y="107" width="6" height="6" transform="rotate(0,140,110)"/><rect x="137" y="119" width="6" height="6" transform="rotate(0,140,122)"/><rect x="137" y="125" width="6" height="6" transform="rotate(0,140,128)"/><rect x="137" y="131" width="6" height="6" transform="rotate(0,140,134)"/><rect x="137" y="137" width="6" height="6" transform="rotate(0,140,140)"/><rect x="137" y="149" width="6" height="6" transform="rotate(0,140,152)"/><rect x="137" y="161" width="6" height="6" transform="rotate(0,140,164)"/><rect x="137" y="173" width="6" height="6" transform="rotate(0,140,176)"/><rect x="137" y="191" width="6" height="6" transform="rotate(0,140,194)"/><rect x="137" y="197" width="6" height="6" transform="rotate(0,140,200)"/><rect x="137" y="203" width="6" height="6" transform="rotate(0,140,206)"/><rect x="137" y="209" width="6" height="6" transform="rotate(0,140,212)"/><rect x="143" y="23" width="6" height="6" transform="rotate(0,146,26)"/><rect x="143" y="29" width="6" height="6" transform="rotate(0,146,32)"/><rect x="143" y="35" width="6" height="6" transform="rotate(0,146,38)"/><rect x="143" y="41" width="6" height="6" transform="rotate(0,146,44)"/><rect x="143" y="65" width="6" height="6" transform="rotate(0,146,68)"/><rect x="143" y="71" width="6" height="6" transform="rotate(0,146,74)"/><rect x="143" y="107" width="6" height="6" transform="rotate(0,146,110)"/><rect x="143" y="113" width="6" height="6" transform="rotate(0,146,116)"/><rect x="143" y="119" width="6" height="6" transform="rotate(0,146,122)"/><rect x="143" y="131" width="6" height="6" transform="rotate(0,146,134)"/><rect x="143" y="137" width="6" height="6" transform="rotate(0,146,140)"/><rect x="143" y="149" width="6" height="6" transform="rotate(0,146,152)"/><rect x="143" y="155" width="6" height="6" transform="rotate(0,146,158)"/><rect x="143" y="173" width="6" height="6" transform="rotate(0,146,176)"/><rect x="143" y="179" width="6" height="6" transform="rotate(0,146,182)"/><rect x="143" y="209" width="6" height="6" transform="rotate(0,146,212)"/><rect x="143" y="221" width="6" height="6" transform="rotate(0,146,224)"/><rect x="149" y="17" width="6" height="6" transform="rotate(0,152,20)"/><rect x="149" y="29" width="6" height="6" transform="rotate(0,152,32)"/><rect x="149" y="41" width="6" height="6" transform="rotate(0,152,44)"/><rect x="149" y="53" width="6" height="6" transform="rotate(0,152,56)"/><rect x="149" y="59" width="6" height="6" transform="rotate(0,152,62)"/><rect x="149" y="71" width="6" height="6" transform="rotate(0,152,74)"/><rect x="149" y="89" width="6" height="6" transform="rotate(0,152,92)"/><rect x="149" y="107" width="6" height="6" transform="rotate(0,152,110)"/><rect x="149" y="119" width="6" height="6" transform="rotate(0,152,122)"/><rect x="149" y="137" width="6" height="6" transform="rotate(0,152,140)"/><rect x="149" y="155" width="6" height="6" transform="rotate(0,152,158)"/><rect x="149" y="161" width="6" height="6" transform="rotate(0,152,164)"/><rect x="149" y="179" width="6" height="6" transform="rotate(0,152,182)"/><rect x="149" y="185" width="6" height="6" transform="rotate(0,152,188)"/><rect x="149" y="197" width="6" height="6" transform="rotate(0,152,200)"/><rect x="149" y="203" width="6" height="6" transform="rotate(0,152,206)"/><rect x="149" y="215" width="6" height="6" transform="rotate(0,152,218)"/><rect x="149" y="233" width="6" height="6" transform="rotate(0,152,236)"/><rect x="155" y="29" width="6" height="6" transform="rotate(0,158,32)"/><rect x="155" y="35" width="6" height="6" transform="rotate(0,158,38)"/><rect x="155" y="59" width="6" height="6" transform="rotate(0,158,62)"/><rect x="155" y="65" width="6" height="6" transform="rotate(0,158,68)"/><rect x="155" y="71" width="6" height="6" transform="rotate(0,158,74)"/><rect x="155" y="83" width="6" height="6" transform="rotate(0,158,86)"/><rect x="155" y="89" width="6" height="6" transform="rotate(0,158,92)"/><rect x="155" y="95" width="6" height="6" transform="rotate(0,158,98)"/><rect x="155" y="101" width="6" height="6" transform="rotate(0,158,104)"/><rect x="155" y="113" width="6" height="6" transform="rotate(0,158,116)"/><rect x="155" y="119" width="6" height="6" transform="rotate(0,158,122)"/><rect x="155" y="125" width="6" height="6" transform="rotate(0,158,128)"/><rect x="155" y="131" width="6" height="6" transform="rotate(0,158,134)"/><rect x="155" y="149" width="6" height="6" transform="rotate(0,158,152)"/><rect x="155" y="161" width="6" height="6" transform="rotate(0,158,164)"/><rect x="155" y="173" width="6" height="6" transform="rotate(0,158,176)"/><rect x="155" y="185" width="6" height="6" transform="rotate(0,158,188)"/><rect x="155" y="203" width="6" height="6" transform="rotate(0,158,206)"/><rect x="155" y="209" width="6" height="6" transform="rotate(0,158,212)"/><rect x="155" y="215" width="6" height="6" transform="rotate(0,158,218)"/><rect x="155" y="221" width="6" height="6" transform="rotate(0,158,224)"/><rect x="161" y="17" width="6" height="6" transform="rotate(0,164,20)"/><rect x="161" y="23" width="6" height="6" transform="rotate(0,164,26)"/><rect x="161" y="29" width="6" height="6" transform="rotate(0,164,32)"/><rect x="161" y="47" width="6" height="6" transform="rotate(0,164,50)"/><rect x="161" y="53" width="6" height="6" transform="rotate(0,164,56)"/><rect x="161" y="83" width="6" height="6" transform="rotate(0,164,86)"/><rect x="161" y="89" width="6" height="6" transform="rotate(0,164,92)"/><rect x="161" y="113" width="6" height="6" transform="rotate(0,164,116)"/><rect x="161" y="119" width="6" height="6" transform="rotate(0,164,122)"/><rect x="161" y="125" width="6" height="6" transform="rotate(0,164,128)"/><rect x="161" y="131" width="6" height="6" transform="rotate(0,164,134)"/><rect x="161" y="137" width="6" height="6" transform="rotate(0,164,140)"/><rect x="161" y="155" width="6" height="6" transform="rotate(0,164,158)"/><rect x="161" y="179" width="6" height="6" transform="rotate(0,164,182)"/><rect x="161" y="185" width="6" height="6" transform="rotate(0,164,188)"/><rect x="161" y="191" width="6" height="6" transform="rotate(0,164,194)"/><rect x="161" y="197" width="6" height="6" transform="rotate(0,164,200)"/><rect x="161" y="203" width="6" height="6" transform="rotate(0,164,206)"/><rect x="167" y="17" width="6" height="6" transform="rotate(0,170,20)"/><rect x="167" y="35" width="6" height="6" transform="rotate(0,170,38)"/><rect x="167" y="41" width="6" height="6" transform="rotate(0,170,44)"/><rect x="167" y="65" width="6" height="6" transform="rotate(0,170,68)"/><rect x="167" y="77" width="6" height="6" transform="rotate(0,170,80)"/><rect x="167" y="83" width="6" height="6" transform="rotate(0,170,86)"/><rect x="167" y="89" width="6" height="6" transform="rotate(0,170,92)"/><rect x="167" y="95" width="6" height="6" transform="rotate(0,170,98)"/><rect x="167" y="113" width="6" height="6" transform="rotate(0,170,116)"/><rect x="167" y="125" width="6" height="6" transform="rotate(0,170,128)"/><rect x="167" y="143" width="6" height="6" transform="rotate(0,170,146)"/><rect x="167" y="155" width="6" height="6" transform="rotate(0,170,158)"/><rect x="167" y="167" width="6" height="6" transform="rotate(0,170,170)"/><rect x="167" y="173" width="6" height="6" transform="rotate(0,170,176)"/><rect x="167" y="179" width="6" height="6" transform="rotate(0,170,182)"/><rect x="167" y="185" width="6" height="6" transform="rotate(0,170,188)"/><rect x="167" y="203" width="6" height="6" transform="rotate(0,170,206)"/><rect x="167" y="209" width="6" height="6" transform="rotate(0,170,212)"/><rect x="173" y="17" width="6" height="6" transform="rotate(0,176,20)"/><rect x="173" y="23" width="6" height="6" transform="rotate(0,176,26)"/><rect x="173" y="29" width="6" height="6" transform="rotate(0,176,32)"/><rect x="173" y="35" width="6" height="6" transform="rotate(0,176,38)"/><rect x="173" y="41" width="6" height="6" transform="rotate(0,176,44)"/><rect x="173" y="47" width="6" height="6" transform="rotate(0,176,50)"/><rect x="173" y="53" width="6" height="6" transform="rotate(0,176,56)"/><rect x="173" y="59" width="6" height="6" transform="rotate(0,176,62)"/><rect x="173" y="71" width="6" height="6" transform="rotate(0,176,74)"/><rect x="173" y="77" width="6" height="6" transform="rotate(0,176,80)"/><rect x="173" y="83" width="6" height="6" transform="rotate(0,176,86)"/><rect x="173" y="89" width="6" height="6" transform="rotate(0,176,92)"/><rect x="173" y="113" width="6" height="6" transform="rotate(0,176,116)"/><rect x="173" y="119" width="6" height="6" transform="rotate(0,176,122)"/><rect x="173" y="125" width="6" height="6" transform="rotate(0,176,128)"/><rect x="173" y="131" width="6" height="6" transform="rotate(0,176,134)"/><rect x="173" y="137" width="6" height="6" transform="rotate(0,176,140)"/><rect x="173" y="167" width="6" height="6" transform="rotate(0,176,170)"/><rect x="173" y="173" width="6" height="6" transform="rotate(0,176,176)"/><rect x="173" y="179" width="6" height="6" transform="rotate(0,176,182)"/><rect x="173" y="185" width="6" height="6" transform="rotate(0,176,188)"/><rect x="173" y="197" width="6" height="6" transform="rotate(0,176,200)"/><rect x="173" y="209" width="6" height="6" transform="rotate(0,176,212)"/><rect x="173" y="215" width="6" height="6" transform="rotate(0,176,218)"/><rect x="173" y="221" width="6" height="6" transform="rotate(0,176,224)"/><rect x="173" y="227" width="6" height="6" transform="rotate(0,176,230)"/><rect x="173" y="233" width="6" height="6" transform="rotate(0,176,236)"/><rect x="179" y="17" width="6" height="6" transform="rotate(0,182,20)"/><rect x="179" y="77" width="6" height="6" transform="rotate(0,182,80)"/><rect x="179" y="107" width="6" height="6" transform="rotate(0,182,110)"/><rect x="179" y="125" width="6" height="6" transform="rotate(0,182,128)"/><rect x="179" y="155" width="6" height="6" transform="rotate(0,182,158)"/><rect x="179" y="179" width="6" height="6" transform="rotate(0,182,182)"/><rect x="179" y="203" width="6" height="6" transform="rotate(0,182,206)"/><rect x="179" y="221" width="6" height="6" transform="rotate(0,182,224)"/><rect x="179" y="227" width="6" height="6" transform="rotate(0,182,230)"/><rect x="185" y="17" width="6" height="6" transform="rotate(0,188,20)"/><rect x="185" y="29" width="6" height="6" transform="rotate(0,188,32)"/><rect x="185" y="35" width="6" height="6" transform="rotate(0,188,38)"/><rect x="185" y="53" width="6" height="6" transform="rotate(0,188,56)"/><rect x="185" y="65" width="6" height="6" transform="rotate(0,188,68)"/><rect x="185" y="77" width="6" height="6" transform="rotate(0,188,80)"/><rect x="185" y="89" width="6" height="6" transform="rotate(0,188,92)"/><rect x="185" y="95" width="6" height="6" transform="rotate(0,188,98)"/><rect x="185" y="113" width="6" height="6" transform="rotate(0,188,116)"/><rect x="185" y="125" width="6" height="6" transform="rotate(0,188,128)"/><rect x="185" y="167" width="6" height="6" transform="rotate(0,188,170)"/><rect x="185" y="173" width="6" height="6" transform="rotate(0,188,176)"/><rect x="185" y="179" width="6" height="6" transform="rotate(0,188,182)"/><rect x="185" y="185" width="6" height="6" transform="rotate(0,188,188)"/><rect x="185" y="191" width="6" height="6" transform="rotate(0,188,194)"/><rect x="185" y="197" width="6" height="6" transform="rotate(0,188,200)"/><rect x="185" y="203" width="6" height="6" transform="rotate(0,188,206)"/><rect x="185" y="209" width="6" height="6" transform="rotate(0,188,212)"/><rect x="185" y="221" width="6" height="6" transform="rotate(0,188,224)"/><rect x="191" y="65" width="6" height="6" transform="rotate(0,194,68)"/><rect x="191" y="71" width="6" height="6" transform="rotate(0,194,74)"/><rect x="191" y="77" width="6" height="6" transform="rotate(0,194,80)"/><rect x="191" y="95" width="6" height="6" transform="rotate(0,194,98)"/><rect x="191" y="101" width="6" height="6" transform="rotate(0,194,104)"/><rect x="191" y="107" width="6" height="6" transform="rotate(0,194,110)"/><rect x="191" y="113" width="6" height="6" transform="rotate(0,194,116)"/><rect x="191" y="131" width="6" height="6" transform="rotate(0,194,134)"/><rect x="191" y="143" width="6" height="6" transform="rotate(0,194,146)"/><rect x="191" y="167" width="6" height="6" transform="rotate(0,194,170)"/><rect x="191" y="185" width="6" height="6" transform="rotate(0,194,188)"/><rect x="191" y="209" width="6" height="6" transform="rotate(0,194,212)"/><rect x="191" y="221" width="6" height="6" transform="rotate(0,194,224)"/><rect x="191" y="227" width="6" height="6" transform="rotate(0,194,230)"/><rect x="197" y="65" width="6" height="6" transform="rotate(0,200,68)"/><rect x="197" y="71" width="6" height="6" transform="rotate(0,200,74)"/><rect x="197" y="101" width="6" height="6" transform="rotate(0,200,104)"/><rect x="197" y="107" width="6" height="6" transform="rotate(0,200,110)"/><rect x="197" y="131" width="6" height="6" transform="rotate(0,200,134)"/><rect x="197" y="137" width="6" height="6" transform="rotate(0,200,140)"/><rect x="197" y="149" width="6" height="6" transform="rotate(0,200,152)"/><rect x="197" y="155" width="6" height="6" transform="rotate(0,200,158)"/><rect x="197" y="185" width="6" height="6" transform="rotate(0,200,188)"/><rect x="197" y="197" width="6" height="6" transform="rotate(0,200,200)"/><rect x="197" y="209" width="6" height="6" transform="rotate(0,200,212)"/><rect x="197" y="227" width="6" height="6" transform="rotate(0,200,230)"/><rect x="197" y="233" width="6" height="6" transform="rotate(0,200,236)"/><rect x="203" y="65" width="6" height="6" transform="rotate(0,206,68)"/><rect x="203" y="95" width="6" height="6" transform="rotate(0,206,98)"/><rect x="203" y="107" width="6" height="6" transform="rotate(0,206,110)"/><rect x="203" y="119" width="6" height="6" transform="rotate(0,206,122)"/><rect x="203" y="125" width="6" height="6" transform="rotate(0,206,128)"/><rect x="203" y="131" width="6" height="6" transform="rotate(0,206,134)"/><rect x="203" y="137" width="6" height="6" transform="rotate(0,206,140)"/><rect x="203" y="149" width="6" height="6" transform="rotate(0,206,152)"/><rect x="203" y="155" width="6" height="6" transform="rotate(0,206,158)"/><rect x="203" y="167" width="6" height="6" transform="rotate(0,206,170)"/><rect x="203" y="173" width="6" height="6" transform="rotate(0,206,176)"/><rect x="203" y="179" width="6" height="6" transform="rotate(0,206,182)"/><rect x="203" y="185" width="6" height="6" transform="rotate(0,206,188)"/><rect x="203" y="209" width="6" height="6" transform="rotate(0,206,212)"/><rect x="203" y="227" width="6" height="6" transform="rotate(0,206,230)"/><rect x="209" y="65" width="6" height="6" transform="rotate(0,212,68)"/><rect x="209" y="71" width="6" height="6" transform="rotate(0,212,74)"/><rect x="209" y="95" width="6" height="6" transform="rotate(0,212,98)"/><rect x="209" y="101" width="6" height="6" transform="rotate(0,212,104)"/><rect x="209" y="107" width="6" height="6" transform="rotate(0,212,110)"/><rect x="209" y="131" width="6" height="6" transform="rotate(0,212,134)"/><rect x="209" y="155" width="6" height="6" transform="rotate(0,212,158)"/><rect x="209" y="161" width="6" height="6" transform="rotate(0,212,164)"/><rect x="209" y="179" width="6" height="6" transform="rotate(0,212,182)"/><rect x="209" y="185" width="6" height="6" transform="rotate(0,212,188)"/><rect x="209" y="191" width="6" height="6" transform="rotate(0,212,194)"/><rect x="209" y="197" width="6" height="6" transform="rotate(0,212,200)"/><rect x="209" y="203" width="6" height="6" transform="rotate(0,212,206)"/><rect x="209" y="209" width="6" height="6" transform="rotate(0,212,212)"/><rect x="209" y="233" width="6" height="6" transform="rotate(0,212,236)"/><rect x="215" y="65" width="6" height="6" transform="rotate(0,218,68)"/><rect x="215" y="77" width="6" height="6" transform="rotate(0,218,80)"/><rect x="215" y="83" width="6" height="6" transform="rotate(0,218,86)"/><rect x="215" y="101" width="6" height="6" transform="rotate(0,218,104)"/><rect x="215" y="113" width="6" height="6" transform="rotate(0,218,116)"/><rect x="215" y="125" width="6" height="6" transform="rotate(0,218,128)"/><rect x="215" y="131" width="6" height="6" transform="rotate(0,218,134)"/><rect x="215" y="155" width="6" height="6" transform="rotate(0,218,158)"/><rect x="215" y="167" width="6" height="6" transform="rotate(0,218,170)"/><rect x="215" y="173" width="6" height="6" transform="rotate(0,218,176)"/><rect x="215" y="197" width="6" height="6" transform="rotate(0,218,200)"/><rect x="215" y="233" width="6" height="6" transform="rotate(0,218,236)"/><rect x="221" y="71" width="6" height="6" transform="rotate(0,224,74)"/><rect x="221" y="83" width="6" height="6" transform="rotate(0,224,86)"/><rect x="221" y="95" width="6" height="6" transform="rotate(0,224,98)"/><rect x="221" y="101" width="6" height="6" transform="rotate(0,224,104)"/><rect x="221" y="107" width="6" height="6" transform="rotate(0,224,110)"/><rect x="221" y="113" width="6" height="6" transform="rotate(0,224,116)"/><rect x="221" y="125" width="6" height="6" transform="rotate(0,224,128)"/><rect x="221" y="155" width="6" height="6" transform="rotate(0,224,158)"/><rect x="221" y="161" width="6" height="6" transform="rotate(0,224,164)"/><rect x="221" y="167" width="6" height="6" transform="rotate(0,224,170)"/><rect x="221" y="185" width="6" height="6" transform="rotate(0,224,188)"/><rect x="221" y="191" width="6" height="6" transform="rotate(0,224,194)"/><rect x="221" y="209" width="6" height="6" transform="rotate(0,224,212)"/><rect x="221" y="215" width="6" height="6" transform="rotate(0,224,218)"/><rect x="221" y="221" width="6" height="6" transform="rotate(0,224,224)"/><rect x="221" y="233" width="6" height="6" transform="rotate(0,224,236)"/><rect x="227" y="77" width="6" height="6" transform="rotate(0,230,80)"/><rect x="227" y="83" width="6" height="6" transform="rotate(0,230,86)"/><rect x="227" y="101" width="6" height="6" transform="rotate(0,230,104)"/><rect x="227" y="113" width="6" height="6" transform="rotate(0,230,116)"/><rect x="227" y="119" width="6" height="6" transform="rotate(0,230,122)"/><rect x="227" y="131" width="6" height="6" transform="rotate(0,230,134)"/><rect x="227" y="137" width="6" height="6" transform="rotate(0,230,140)"/><rect x="227" y="149" width="6" height="6" transform="rotate(0,230,152)"/><rect x="227" y="179" width="6" height="6" transform="rotate(0,230,182)"/><rect x="227" y="209" width="6" height="6" transform="rotate(0,230,212)"/><rect x="227" y="221" width="6" height="6" transform="rotate(0,230,224)"/><rect x="227" y="227" width="6" height="6" transform="rotate(0,230,230)"/><rect x="227" y="233" width="6" height="6" transform="rotate(0,230,236)"/><rect x="233" y="65" width="6" height="6" transform="rotate(0,236,68)"/><rect x="233" y="77" width="6" height="6" transform="rotate(0,236,80)"/><rect x="233" y="83" width="6" height="6" transform="rotate(0,236,86)"/><rect x="233" y="95" width="6" height="6" transform="rotate(0,236,98)"/><rect x="233" y="101" width="6" height="6" transform="rotate(0,236,104)"/><rect x="233" y="107" width="6" height="6" transform="rotate(0,236,110)"/><rect x="233" y="125" width="6" height="6" transform="rotate(0,236,128)"/><rect x="233" y="131" width="6" height="6" transform="rotate(0,236,134)"/><rect x="233" y="149" width="6" height="6" transform="rotate(0,236,152)"/><rect x="233" y="161" width="6" height="6" transform="rotate(0,236,164)"/><rect x="233" y="185" width="6" height="6" transform="rotate(0,236,188)"/><rect x="233" y="191" width="6" height="6" transform="rotate(0,236,194)"/><rect x="233" y="203" width="6" height="6" transform="rotate(0,236,206)"/><rect x="233" y="215" width="6" height="6" transform="rotate(0,236,218)"/><rect x="233" y="233" width="6" height="6" transform="rotate(0,236,236)"/></clipPath><clipPath id="clip-path-corners-square-color-0-0"><path clip-rule="evenodd" d="M 17 17v 42h 42v -42zM 23 23h 30v 30h -30z" transform="rotate(0,38,38)"/></clipPath><clipPath id="clip-path-corners-dot-color-0-0"><rect x="29" y="29" width="18" height="18" transform="rotate(0,38,38)"/></clipPath><clipPath id="clip-path-corners-square-color-1-0"><path clip-rule="evenodd" d="M 197 17v 42h 42v -42zM 203 23h 30v 30h -30z" transform="rotate(90,218,38)"/></clipPath><clipPath id="clip-path-corners-dot-color-1-0"><rect x="209" y="29" width="18" height="18" transform="rotate(90,218,38)"/></clipPath><clipPath id="clip-path-corners-square-color-0-1"><path clip-rule="evenodd" d="M 17 197v 42h 42v -42zM 23 203h 30v 30h -30z" transform="rotate(-90,38,218)"/></clipPath><clipPath id="clip-path-corners-dot-color-0-1"><rect x="29" y="209" width="18" height="18" transform="rotate(-90,38,218)"/></clipPath></defs><rect x="0" y="0" height="256" width="256" clip-path="url('#clip-path-background-color')" fill="#ffffff"/><rect x="17" y="17" height="222" width="222" clip-path="url('#clip-path-dot-color')" fill="#000000"/><rect x="17" y="17" height="42" width="42" clip-path="url('#clip-path-corners-square-color-0-0')" fill="#000000"/><rect x="29" y="29" height="18" width="18" clip-path="url('#clip-path-corners-dot-color-0-0')" fill="#000000"/><rect x="197" y="17" height="42" width="42" clip-path="url('#clip-path-corners-square-color-1-0')" fill="#000000"/><rect x="209" y="29" height="18" width="18" clip-path="url('#clip-path-corners-dot-color-1-0')" fill="#000000"/><rect x="17" y="197" height="42" width="42" clip-path="url('#clip-path-corners-square-color-0-1')" fill="#000000"/><rect x="29" y="209" height="18" width="18" clip-path="url('#clip-path-corners-dot-color-0-1')" fill="#000000"/></svg>