<svg xmlns="http://www.w3.org/2000/svg" width="88" height="31" style="cursor:default"><path fill="#AAB2AB" d="M2.499.352 85.626.5c1.161 0 2.198-.173 2.198 2.333l-.102 27.552H.401V2.73C.401 1.495.52.352 2.499.352"/><path fill="#FFF" d="M25.316 14.449c.003 5.557-4.471 10.065-9.993 10.069-5.522.003-10.001-4.5-10.005-10.057v-.012C5.315 8.891 9.789 4.383 15.312 4.38s10.001 4.5 10.005 10.057zM46.464 3.306c4.349 0 7.875 3.548 7.875 7.925s-3.526 7.926-7.875 7.926-7.875-3.548-7.875-7.926c-.001-4.377 3.525-7.925 7.875-7.925m28.632 7.751c.003 4.314-3.47 7.814-7.757 7.818s-7.765-3.492-7.769-7.806v-.012c-.002-4.314 3.471-7.814 7.758-7.817s7.765 3.492 7.768 7.806z"/><path d="M23.446 6.252q3.326 3.348 3.326 8.197c0 4.849-1.089 5.936-3.269 8.11q-3.47 3.434-8.2 3.434-4.674 0-8.057-3.405T3.863 14.45c0-4.733 1.127-5.889 3.383-8.198q3.297-3.348 8.057-3.348 4.818 0 8.143 3.348M8.739 7.753q-2.812 2.858-2.812 6.698t2.783 6.64c2.783 2.8 4.064 2.801 6.627 2.801s4.791-.942 6.684-2.829q2.696-2.627 2.697-6.611 0-3.954-2.74-6.712c-2.74-2.758-4.04-2.757-6.641-2.757s-4.801.923-6.598 2.77m4.933 5.572q-.43-.942-1.287-.942-1.516 0-1.516 2.054 0 2.055 1.516 2.055 1.001 0 1.431-1.002l1.401.751q-1.002 1.791-3.006 1.792-1.546 0-2.476-.954-.931-.954-.931-2.629 0-1.648.959-2.616c.959-.968 1.436-.968 2.39-.968q2.119 0 3.035 1.679zm6.593 0q-.43-.942-1.261-.942-1.547 0-1.547 2.054 0 2.055 1.547 2.055 1.003 0 1.404-1.002l1.433.751q-1 1.791-3.001 1.792-1.543 0-2.473-.954-.928-.954-.928-2.629 0-1.648.943-2.616.942-.969 2.4-.968 2.115 0 3.029 1.679zM86.353 0H1.647C.739 0 0 .744 0 1.658v28.967c0 .207.167.375.372.375h87.256a.374.374 0 0 0 .372-.375V1.658C88 .744 87.261 0 86.353 0M1.647.749h84.705c.498 0 .903.408.903.909v20.109H26.714c-2.219 4.038-6.494 6.779-11.401 6.779-4.908 0-9.183-2.738-11.4-6.779H.744V1.658c0-.501.405-.909.903-.909M67.277 2.5q-3.533 0-5.98 2.481-2.512 2.568-2.512 6.077c0 3.509.837 4.351 2.512 6.034q2.512 2.524 5.98 2.524 3.513 0 6.089-2.546 2.425-2.417 2.427-6.012c.002-3.595-.824-4.422-2.471-6.077Q70.855 2.5 67.277 2.5m.022 1.54q2.895 0 4.918 2.054 2.042 2.033 2.043 4.964 0 2.953-2.001 4.9-2.107 2.096-4.96 2.096t-4.917-2.074q-2.064-2.076-2.064-4.921c0-2.845.695-3.552 2.086-4.964q1.999-2.056 4.895-2.055m-3.791 5.809c.34-2.153 1.846-3.304 3.733-3.304 2.716 0 4.369 1.982 4.369 4.626 0 2.58-1.76 4.584-4.411 4.584-1.824 0-3.457-1.13-3.755-3.347h2.143c.063 1.151.806 1.556 1.866 1.556 1.209 0 1.994-1.13 1.994-2.857 0-1.812-.679-2.771-1.951-2.771-.934 0-1.739.341-1.909 1.513l.623-.003-1.687 1.697-1.686-1.697zm-14.765-.911a.55.55 0 0 0-.55-.553h-3.478a.55.55 0 0 0-.55.553v3.5h.971v4.145h2.636v-4.145h.971zM46.455 5.53c.656 0 1.189.536 1.189 1.197s-.533 1.197-1.189 1.197c-.657 0-1.189-.536-1.189-1.197s.532-1.197 1.189-1.197m-.012-3.03q-3.533 0-5.981 2.481-2.512 2.567-2.512 6.076c0 3.509.837 4.351 2.512 6.034q2.511 2.524 5.981 2.524 3.513 0 6.088-2.547 2.428-2.417 2.428-6.012c0-3.595-.823-4.421-2.47-6.076Q50.021 2.5 46.443 2.5m.022 1.539q2.895 0 4.917 2.054 2.044 2.033 2.044 4.963 0 2.953-2.001 4.9-2.107 2.097-4.96 2.096t-4.917-2.075-2.065-4.921q0-2.844 2.086-4.963 2.001-2.054 4.896-2.054"/><path fill="#FFF" d="m69.277 24.171 1.816 4.888h-1.109l-.367-1.089h-1.816l-.381 1.089h-1.074l1.836-4.888zm.062 2.997-.612-1.793h-.014l-.633 1.793zm-6.079.682a.8.8 0 0 0 .234.277q.146.107.342.158.199.051.408.051.143 0 .306-.023c.163-.023.21-.047.306-.093a.66.66 0 0 0 .236-.188.47.47 0 0 0 .096-.305.43.43 0 0 0-.126-.321 1 1 0 0 0-.329-.206 3 3 0 0 0-.461-.143 14 14 0 0 1-.523-.138 5 5 0 0 1-.531-.167 1.8 1.8 0 0 1-.461-.258 1.2 1.2 0 0 1-.33-.393 1.2 1.2 0 0 1-.125-.572q0-.377.16-.654.159-.276.418-.462.258-.184.584-.274.327-.088.652-.088.38 0 .73.086.349.085.621.277.273.191.432.49.16.297.16.723h-1.036a.9.9 0 0 0-.091-.363q-.079-.144-.207-.227a.65.65 0 0 0-.295-.115 1.8 1.8 0 0 0-.361-.035q-.129 0-.258.027a.7.7 0 0 0-.232.096q-.106.07-.174.172c-.068.102-.067.155-.067.26q0 .145.054.232.056.09.215.165c.159.075.254.101.441.151l.736.191q.138.027.377.1.241.07.479.229.238.158.412.422.173.264.173.674 0 .337-.13.623a1.35 1.35 0 0 1-.384.496 1.8 1.8 0 0 1-.632.326 3 3 0 0 1-.874.116q-.401 0-.779-.1a2 2 0 0 1-.667-.312 1.55 1.55 0 0 1-.459-.543 1.6 1.6 0 0 1-.163-.78h1.036a.9.9 0 0 0 .087.418m-17.287-3.679h1.198l1.138 1.931 1.13-1.931h1.19l-1.803 3.012v1.876h-1.07v-1.903zm-1.975 0q.347 0 .633.062c.286.062.354.108.491.201a.95.95 0 0 1 .316.373q.112.233.112.575 0 .37-.167.616a1.2 1.2 0 0 1-.493.402q.45.131.672.456.222.327.223.784 0 .37-.144.641-.143.27-.386.441a1.7 1.7 0 0 1-.552.254 2.5 2.5 0 0 1-.638.082h-2.358V24.17zm-.137 1.976a.77.77 0 0 0 .47-.136q.185-.137.185-.444 0-.172-.062-.28c-.062-.108-.095-.129-.164-.17s-.146-.07-.235-.086a1.6 1.6 0 0 0-.276-.023h-1v1.14h1.082zm.062 2.075q.157 0 .3-.03a.7.7 0 0 0 .252-.104q.109-.07.174-.194a.55.55 0 0 0 .065-.315q0-.376-.212-.536t-.559-.161h-1.166v1.341z"/></svg>