<svg xmlns="http://www.w3.org/2000/svg" width="256.16" height="54.39" style="cursor:default" viewBox="0 0 67.776 14.391"><defs><linearGradient id="a" x1="3.217" x2="44.781" y1="15" y2="15" gradientUnits="userSpaceOnUse"><stop offset="0" stop-color="#d93025"/><stop offset="1" stop-color="#ea4335"/></linearGradient><linearGradient id="b" x1="20.722" x2="41.504" y1="47.679" y2="11.684" gradientUnits="userSpaceOnUse"><stop offset="0" stop-color="#fcc934"/><stop offset="1" stop-color="#fbbc04"/></linearGradient><linearGradient id="c" x1="26.598" x2="5.816" y1="46.501" y2="10.506" gradientUnits="userSpaceOnUse"><stop offset="0" stop-color="#1e8e3e"/><stop offset="1" stop-color="#34a853"/></linearGradient></defs><path fill="#5f6368" d="M189.72 134.805a4.06 4.06 0 0 1-4.062 4.062 4.06 4.06 0 0 1-4.061-4.062 4.06 4.06 0 0 1 4.061-4.06 4.06 4.06 0 0 1 4.062 4.06m-4.034 3.125a3.127 3.024 89.5 0 0 2.996-3.154 3.127 3.024 89.5 0 0-3.051-3.1 3.127 3.024 89.5 0 0-2.997 3.153 3.127 3.024 89.5 0 0 3.052 3.101m9.619-1.59v.617q-.828 2.46-3.506 1.762-1.304-.342-1.865-1.887a.074.074 0 0 1 .042-.095l.768-.304q.07-.03.1.042.67 1.64 2.225 1.4c.852-.13 1.447-.924 1.074-1.76-.394-.886-1.939-1.124-2.746-1.526-1.77-.887-1.495-3.12.28-3.678q2.165-.68 3.342 1.291a.09.093 62.5 0 1-.042.13l-.738.33a.082.085 63.5 0 1-.109-.034q-.722-1.246-2.056-.844c-.756.23-1.2 1.148-.505 1.722.622.514 1.495.64 2.291 1q1.207.548 1.445 1.834m-43.265-2.363q1.172-1.217 2.614-.54.985.458 1.016 1.75.037 1.534.008 3.439-.003.074-.074.074l-.83-.003q-.067 0-.07-.066-.044-1.4.006-2.683c.042-1.06-.283-2.032-1.59-1.81-.805.135-1.17.945-1.165 1.702q.005 1.413.005 2.746 0 .109-.11.111l-.734.005q-.14 0-.14-.14v-7.525q0-.132.13-.13l.756.02q.112.002.112.113l-.048 2.892q-.003.164.114.045m-4.492 3.966q1.066.05 1.569-.849.074-.132.211-.071l.609.267q.14.06.066.193-.86 1.558-2.73 1.342c-1.908-.22-2.826-2.281-2.128-3.943.873-2.077 3.73-2.318 4.842-.275q.06.111-.055.159l-.673.29a.16.16 0 0 1-.203-.073q-.416-.831-1.318-.873c-2.294-.111-2.44 3.725-.19 3.833m15.426.94a2.85 2.78 89.4 0 1-2.81-2.82 2.85 2.78 89.4 0 1 2.75-2.88 2.85 2.78 89.4 0 1 2.81 2.821 2.85 2.78 89.4 0 1-2.75 2.879m-.024-.921a1.931 1.773 89.9 0 0 1.77-1.935 1.931 1.773 89.9 0 0-1.777-1.928 1.931 1.773 89.9 0 0-1.77 1.935 1.931 1.773 89.9 0 0 1.777 1.928" style="stroke-width:.264583" transform="translate(-127.53 -127.794)"/><path fill="#5f6368" d="M167.685 133.98c.339-.286.646-.574 1.09-.688q1.172-.296 1.929.484a.696.683 13.8 0 1 .159.257q.016.05.06.085.101.076.173-.027.58-.82 1.542-.87 1.94-.096 2.13 1.87.082.836.024 3.493-.003.116-.122.116h-.804q-.12 0-.117-.119.011-1.508-.005-3.193c-.016-1.995-2.45-1.48-2.492.121q-.05 1.879-.024 3.054.003.137-.135.137l-.783-.003q-.132 0-.13-.132.027-1.49-.005-3.157c-.04-2.021-2.426-1.497-2.487.066q-.068 1.678-.026 3.093.003.135-.13.133h-.801a.103.1 0 0 1-.104-.1l-.003-5.07q0-.18.18-.18l.643.003q.172.003.154.174l-.037.387q-.022.185.121.066m8.972 2.413q.167.966.85 1.318 1.404.722 2.357-.596.04-.053.098-.029l.706.304q.066.03.035.096c-.498 1-1.477 1.46-2.59 1.352-2.707-.262-3.393-4.035-1.054-5.329.987-.545 2.445-.36 3.194.542q.714.863.632 2.022-.01.17-.182.17l-3.914-.009q-.158 0-.132.159m.164-.998 2.969-.01a.034.034 0 0 0 .034-.035v-.023a1.201 1.49 89.8 0 0-1.495-1.196h-.058a1.201 1.49 89.8 0 0-1.484 1.206v.024a.034.034 0 0 0 .034.034m-18.806-1.315q.661-1.068 2.103-.735a.08.08 0 0 1 .056.108l-.297.744a.135.135 0 0 1-.153.082c-1.159-.254-1.855.574-1.818 1.688q.048 1.445.003 2.635-.005.1-.106.1l-.796-.004a.135.132 0 0 1-.135-.133v-5.087q0-.127.13-.127l.735.003a.14.138 4.3 0 1 .138.156q-.037.283.01.547.035.178.13.024z" style="stroke-width:.264583" transform="translate(-127.53 -127.794)"/><g style="display:inline" transform="scale(.30225 .2998)"><circle cx="24" cy="23.995" r="12" style="fill:#fff"/><path d="M3.215 36A24 24 0 1 0 12 3.215 24 24 0 0 0 3.215 36m31.177-18A12 12 0 1 1 18 13.608 12 12 0 0 1 34.392 18" style="fill:none"/><path d="M24 12h20.781a23.994 23.994 0 0 0-41.564.003L13.607 30l.01-.002A11.985 11.985 0 0 1 24 12" style="fill:url(#a)"/><circle cx="24" cy="24" r="9.5" style="fill:#1a73e8"/><path d="M34.391 30.003 24.001 48A23.994 23.994 0 0 0 44.78 12.003H23.999l-.003.01a11.985 11.985 0 0 1 10.395 17.99" style="fill:url(#b)"/><path d="M13.609 30.003 3.218 12.006A23.994 23.994 0 0 0 24.003 48l10.39-17.997-.007-.007a11.985 11.985 0 0 1-20.777.007" style="fill:url(#c)"/></g></svg>