<svg xmlns="http://www.w3.org/2000/svg" xmlns:xlink="http://www.w3.org/1999/xlink" width="1646.324" height="516.604" viewBox="0 0 1543.428 484.317"><defs><linearGradient id="a"><stop offset="0" style="stop-color:#699ad7;stop-opacity:1"/><stop offset=".243" style="stop-color:#7eb1dd;stop-opacity:1"/><stop offset="1" style="stop-color:#7ebae4;stop-opacity:1"/></linearGradient><linearGradient id="c"><stop offset="0" style="stop-color:#415e9a;stop-opacity:1"/><stop offset=".232" style="stop-color:#4a6baf;stop-opacity:1"/><stop offset="1" style="stop-color:#5277c3;stop-opacity:1"/></linearGradient><linearGradient xlink:href="#a" id="d" x1="200.597" x2="290.087" y1="351.411" y2="506.188" gradientTransform="translate(70.65 -1055.151)" gradientUnits="userSpaceOnUse"/><linearGradient xlink:href="#c" id="h" x1="-584.199" x2="-496.297" y1="782.336" y2="937.714" gradientTransform="translate(864.696 -1491.34)" gradientUnits="userSpaceOnUse"/></defs><g style="display:inline"><path d="M309.404-710.252 431.6-498.577l-56.157.527-32.623-56.87-32.857 56.566-27.902-.011-14.29-24.69 46.81-80.49-33.23-57.826z" style="color:#000;clip-rule:nonzero;display:inline;overflow:visible;visibility:visible;opacity:1;isolation:auto;mix-blend-mode:normal;color-interpolation:sRGB;color-interpolation-filters:linearRGB;solid-color:#000;solid-opacity:1;fill:#5277c3;fill-opacity:1;fill-rule:evenodd;stroke:none;stroke-width:3;stroke-linecap:butt;stroke-linejoin:round;stroke-miterlimit:4;stroke-dasharray:none;stroke-dashoffset:0;stroke-opacity:1;color-rendering:auto;image-rendering:auto;shape-rendering:auto;text-rendering:auto" transform="translate(-132.582 958.04)"/><path d="M353.51-797.443 231.291-585.78l-28.535-48.37 32.938-56.688-65.415-.172-13.941-24.17 14.236-24.72 93.112.293 33.464-57.69zm9.375 169.2 244.415.012-27.623 48.897-65.562-.182 32.56 56.737-13.962 24.159-28.527.032-46.301-80.784-66.693-.136zm142.258-92.746L382.946-932.664l56.157-.527 32.624 56.87 32.856-56.566 27.903.011 14.29 24.69-46.81 80.49 33.23 57.826z" style="color:#000;clip-rule:nonzero;display:inline;overflow:visible;visibility:visible;opacity:1;isolation:auto;mix-blend-mode:normal;color-interpolation:sRGB;color-interpolation-filters:linearRGB;solid-color:#000;solid-opacity:1;fill:#7ebae4;fill-opacity:1;fill-rule:evenodd;stroke:none;stroke-width:3;stroke-linecap:butt;stroke-linejoin:round;stroke-miterlimit:4;stroke-dasharray:none;stroke-dashoffset:0;stroke-opacity:1;color-rendering:auto;image-rendering:auto;shape-rendering:auto;text-rendering:auto" transform="translate(-132.582 958.04)"/><path d="M309.404-710.252 431.6-498.577l-56.157.527-32.623-56.87-32.857 56.566-27.902-.011-14.29-24.69 46.81-80.49-33.23-57.826zm141.932-93.281-244.414-.012 27.622-48.896 65.562.181-32.558-56.737 13.96-24.158 28.528-.032 46.301 80.784 66.693.135zm9.536 169.691 122.217-211.664 28.535 48.37-32.938 56.688 65.415.172 13.941 24.17-14.236 24.72-93.112-.293-33.464 57.69z" style="color:#000;clip-rule:nonzero;display:inline;overflow:visible;visibility:visible;opacity:1;isolation:auto;mix-blend-mode:normal;color-interpolation:sRGB;color-interpolation-filters:linearRGB;solid-color:#000;solid-opacity:1;fill:#5277c3;fill-opacity:1;fill-rule:evenodd;stroke:none;stroke-width:3;stroke-linecap:butt;stroke-linejoin:round;stroke-miterlimit:4;stroke-dasharray:none;stroke-dashoffset:0;stroke-opacity:1;color-rendering:auto;image-rendering:auto;shape-rendering:auto;text-rendering:auto" transform="translate(-132.582 958.04)"/></g><g style="display:inline;opacity:1" transform="translate(-132.582 958.04)"><path id="e" d="m309.549-710.388 122.197 211.675-56.157.527-32.624-56.87-32.856 56.566-27.903-.011-14.29-24.69 46.81-80.49-33.23-57.826z" style="opacity:1;fill:url(#d);fill-opacity:1;fill-rule:evenodd;stroke:none;stroke-width:3;stroke-linecap:butt;stroke-linejoin:round;stroke-miterlimit:4;stroke-dasharray:none;stroke-opacity:1"/><use xlink:href="#e" width="100%" height="100%" transform="rotate(60 407.112 -715.787)"/><use xlink:href="#e" width="100%" height="100%" transform="rotate(-60 407.312 -715.7)"/><use xlink:href="#e" width="100%" height="100%" transform="rotate(180 407.419 -715.756)"/><path id="i" d="m309.549-710.388 122.197 211.675-56.157.527-32.624-56.87-32.856 56.566-27.903-.011-14.29-24.69 46.81-80.49-33.23-57.826z" style="color:#000;clip-rule:nonzero;display:inline;overflow:visible;visibility:visible;opacity:1;isolation:auto;mix-blend-mode:normal;color-interpolation:sRGB;color-interpolation-filters:linearRGB;solid-color:#000;solid-opacity:1;fill:url(#h);fill-opacity:1;fill-rule:evenodd;stroke:none;stroke-width:3;stroke-linecap:butt;stroke-linejoin:round;stroke-miterlimit:4;stroke-dasharray:none;stroke-dashoffset:0;stroke-opacity:1;color-rendering:auto;image-rendering:auto;shape-rendering:auto;text-rendering:auto"/><use xlink:href="#i" width="100%" height="100%" style="display:inline" transform="rotate(120 407.34 -716.084)"/><use xlink:href="#i" width="100%" height="100%" style="display:inline" transform="rotate(-120 407.288 -715.87)"/></g><g style="display:inline"><g style="font-style:normal;font-variant:normal;font-weight:400;font-stretch:normal;font-size:395.09683228px;line-height:125%;font-family:Carlito;-inkscape-font-specification:Carlito;letter-spacing:0;word-spacing:0;display:inline;opacity:1;fill:#000;fill-opacity:1;stroke:none;stroke-width:1px;stroke-linecap:butt;stroke-linejoin:miter;stroke-opacity:1"><path d="M969.153-847.118h-30.817v139.864c0 19.755.79 50.967 1.975 85.736h-1.185c-15.409-28.842-32.793-56.499-45.041-75.464l-96.799-150.136h-42.275v267.875h30.817v-139.864c0-19.755-.79-56.894-1.975-91.267h1.185c22.916 39.904 36.349 62.03 48.992 80.995l96.799 150.136h38.324zm58.672 267.875h33.188V-770.47h-33.188zm16.594-219.278c11.458 0 20.545-9.088 20.545-20.545s-9.087-20.545-20.545-20.545-20.545 9.087-20.545 20.545c0 11.457 9.087 20.545 20.545 20.545m223.36 28.051h-37.93l-46.621 70.328h-1.186l-45.04-70.328h-41.09l68.351 93.243v1.186l-70.722 96.798h37.93l49.781-75.858h1.186l49.782 75.858h41.09l-72.303-98.379v-1.185z" aria-label="Nix" style="font-style:normal;font-variant:normal;font-weight:400;font-stretch:normal;font-family:Vegur;-inkscape-font-specification:Vegur" transform="translate(-132.582 958.04)"/></g><g style="font-style:normal;font-variant:normal;font-weight:400;font-stretch:normal;font-size:367.48727417px;line-height:125%;font-family:Carlito;-inkscape-font-specification:Carlito;letter-spacing:0;word-spacing:0;display:inline;opacity:1;fill:#000;fill-opacity:1;stroke:none;stroke-width:1px;stroke-linecap:butt;stroke-linejoin:miter;stroke-opacity:1"><path d="M1468.592-800.797c-66.148 0-120.536 48.14-120.536 128.253s54.388 128.253 120.535 128.253c66.148 0 120.536-48.141 120.536-128.253s-54.388-128.253-120.535-128.253m0 24.989c49.243 0 86.726 36.749 86.726 103.264s-37.483 103.264-86.726 103.264-86.728-36.749-86.728-103.264 37.484-103.264 86.727-103.264" aria-label="O" style="font-style:normal;font-variant:normal;font-weight:400;font-stretch:normal;font-family:Vegur;-inkscape-font-specification:Vegur" transform="matrix(.95067 0 0 1.05189 -132.582 958.04)"/></g><g style="font-style:normal;font-variant:normal;font-weight:400;font-stretch:normal;font-size:386.55480957px;line-height:125%;font-family:Carlito;-inkscape-font-specification:Carlito;letter-spacing:0;word-spacing:0;display:inline;opacity:1;fill:#000;fill-opacity:1;stroke:none;stroke-width:1px;stroke-linecap:butt;stroke-linejoin:miter;stroke-opacity:1"><path d="M1523.761-773.886c0 37.109 19.328 57.21 64.168 75.378 34.403 13.916 48.32 26.285 48.32 51.798 0 30.924-25.127 46.387-58.37 46.387-17.395 0-37.11-2.706-58.757-10.05l-3.479 26.672c18.941 6.958 39.815 9.663 60.69 9.663 51.798 0 95.092-26.285 95.092-79.243 0-36.723-22.42-54.505-67.647-72.673-30.151-11.983-44.84-24.74-44.84-51.411 0-25.9 22.42-40.202 50.638-40.202 16.622 0 34.79 4.252 47.546 9.277l3.48-26.286c-14.69-6.184-32.858-9.277-52.959-9.277-47.546 0-83.882 27.446-83.882 69.967" aria-label="S" style="font-style:normal;font-variant:normal;font-weight:400;font-stretch:normal;font-family:Vegur;-inkscape-font-specification:Vegur" transform="translate(-132.582 958.04)"/></g></g></svg>