<svg xmlns="http://www.w3.org/2000/svg" width="449.427" height="76.627"><path d="M3285.35 494.512h21.31c4.55 0 8.09.468 10.63 1.386 2.55.926 4.51 2.45 5.82 4.512 1.34 2.051 2.01 4.305 2.01 6.707 0 3.547-1.31 6.457-3.87 8.75-2.58 2.278-6.64 3.418-12.19 3.418h-23.71zm-9.94-41.875v74.929h33.22c6.7 0 11.76-.671 15.28-2.019 3.45-1.348 6.23-3.711 8.3-7.129s3.12-7.168 3.12-11.301c0-5.312-1.74-9.785-5.15-13.445-3.46-3.633-8.77-5.957-15.98-6.934 2.66-1.269 4.65-2.519 6-3.742 2.91-2.644 5.64-5.984 8.2-9.969l13.08-20.39H3329l-9.92 15.605c-2.91 4.473-5.29 7.93-7.15 10.313-1.91 2.383-3.55 4.062-5.07 4.988-1.47.977-2.95 1.652-4.52 2.004-1.09.234-2.95.351-5.5.351h-11.49v-33.261z" style="fill:#2d3a7e;fill-opacity:1;fill-rule:nonzero;stroke:none" transform="matrix(.13333 0 0 -.13333 0 76.627)"/><path d="M3248.61 491.004c.04-31.004 25.2-56.121 56.23-56.199 31.08.078 56.18 25.195 56.25 56.199-.07 31.047-25.17 56.172-56.25 56.262-31.03-.09-56.19-25.215-56.23-56.262m-9.68 0c0 36.418 29.51 65.918 65.91 65.918 36.39 0 65.9-29.5 65.9-65.918 0-36.387-29.51-65.867-65.9-65.867-36.4 0-65.91 29.48-65.91 65.867M2161 258.223v162.746h-300.55V258.223ZM2375.68 5H2161v149.785h-300.55V5h-214.57v439.961c0 37.598 14.08 67.344 42.46 89.707 27.68 21.66 67.23 32.422 118.67 32.422h408.46c51.46 0 90.98-10.762 118.63-32.422 27.76-21.621 41.58-51.633 41.58-89.707zm585.84 270.273h-273.04v145.696h273.04zm183.87 263.661c-21.72 17.238-55.08 26.418-99.76 27.902l.78.195h-8.38c-1.82.039-3.5.059-5.37.059h-382.07l-.2-.059h-12.44c-51.41 0-90.92-10.742-118.67-32.461-27.68-21.523-41.66-50.664-42.39-86.933h-.03v-1.348c0-.566-.08-.945-.08-1.398h.08V5h214.6v146.824h347.08c94.29 0 141.42 37.746 141.42 113.664v180.235c0 43.281-11.6 74.257-34.57 93.211M1376.08 567.09h-32.03V240.098c-1.41-3.418-4.49-5.996-11.05-4.805 0 0-4.22.84-7.18 4.004-36.24 56.016-175.76 247.793-220.37 308.894-.13.207-.39.383-.57.637h.12c-.65.684-1.43 1.348-2.21 1.895-.31.547-.66.965-1.05 1.093-11.37 10.254-26.28 15.274-46.08 15.274H882.262c-21.782 0-38.571-6.164-50.293-18.371-11.789-12.332-17.711-28.946-17.946-49.403l-.293-.214V5h202.78s-1.16 261.016-1.67 337.988c.87 5.059 4.54 12.481 20.03 10.547 0 0 5.97-.39 8.5-4.894C1082.5 286.152 1338.91 5 1338.91 5h210.6v562.09zM460.84 135.176c-3.211 2.304-6.399 4.59-9.57 6.867H226.523v296.609h299.204V187.043c89.863-28 151.66-64.055 193.75-98.293 7.128 18.008 10.773 38.828 10.773 62.578v274.024c0 94.082-55.074 143.652-165.035 148.816v.422h-17.957c-.68 0-1.317.066-1.965.066v-.066h-360.27C61.656 574.59 0 524.824 0 425.352V151.328C0 52.441 61.656 2.968 185.023 2.968H545.82v.118c19.258.02 36.832 1.426 53.082 3.867-30.117 43.36-85.914 90.488-138.062 128.223" style="fill:#2d3a7e;fill-opacity:1;fill-rule:nonzero;stroke:none" transform="matrix(.13333 0 0 -.13333 0 76.627)"/><path d="M391.137 204.758C458.434 162.031 581.031 77.246 621.586 0h152.727c-26.086 46.543-114.274 158.738-383.176 204.758" style="fill:#ee2327;fill-opacity:1;fill-rule:nonzero;stroke:none" transform="matrix(.13333 0 0 -.13333 0 76.627)"/></svg>