<svg xmlns="http://www.w3.org/2000/svg" xml:space="preserve" width="969.205" height="253.194" style="cursor:default"><path d="M396.713 846.611c0 10.842 8.785 19.627 19.622 19.627 10.841 0 19.632-8.785 19.632-19.627s-8.79-19.627-19.632-19.627c-10.837 0-19.622 8.786-19.622 19.627" style="fill:#f46f1b;fill-opacity:1;fill-rule:nonzero;stroke:none" transform="matrix(1.25 0 0 -1.25 -495.391 1184.88)"/><path d="M566.883 748.383c-9.39-5.42-21.39-2.205-26.811 7.185s-2.205 21.39 7.184 26.811c9.39 5.421 21.391 2.205 26.812-7.184 5.42-9.385 2.205-21.391-7.185-26.812" style="fill:#fab41d;fill-opacity:1;fill-rule:nonzero;stroke:none" transform="matrix(1.25 0 0 -1.25 -495.391 1184.88)"/><path d="M510.158 895.175c24.438 0 44.714-18.145 48.069-41.671h33.625c-1.527 18.487-9.192 35.716-22.006 49.302-8.205-4.177-18.294-4.256-26.866.694-8.582 4.95-13.557 13.735-14.032 22.942a82.6 82.6 0 0 1-18.79 2.155c-12.273 0-24.13-2.676-34.913-7.755l16.837-29.155a48.4 48.4 0 0 0 18.076 3.488" style="fill:#f46f1b;fill-opacity:1;fill-rule:nonzero;stroke:none" transform="matrix(1.25 0 0 -1.25 -495.391 1184.88)"/><path d="M558.232 839.744c-3.35-23.537-23.63-41.697-48.074-41.697a48.3 48.3 0 0 0-18.086 3.498l-16.832-29.16c10.782-5.079 22.645-7.76 34.918-7.76 6.412 0 12.71.739 18.804 2.161.471 9.216 5.446 18.016 14.033 22.971 8.577 4.95 18.67 4.871 26.876.684 12.804 13.592 20.46 30.82 21.986 49.303z" style="fill:#e51635;fill-opacity:1;fill-rule:nonzero;stroke:none" transform="matrix(1.25 0 0 -1.25 -495.391 1184.88)"/><path d="M461.594 846.611c0 15.475 7.274 29.28 18.576 38.174l-16.827 29.155a82.7 82.7 0 0 1-11.164-9.355c-9.736-9.742-16.723-21.5-20.568-34.338 7.745-5.015 12.873-13.72 12.873-23.636s-5.128-18.62-12.873-23.635c3.845-12.834 10.832-24.597 20.568-34.338a83.6 83.6 0 0 1 11.154-9.35l16.832 29.155c-11.302 8.899-18.571 22.704-18.571 38.168" style="fill:#fab41d;fill-opacity:1;fill-rule:nonzero;stroke:none" transform="matrix(1.25 0 0 -1.25 -495.391 1184.88)"/><path d="M566.863 944.874c9.39-5.42 12.606-17.426 7.185-26.811-5.416-9.39-17.422-12.606-26.811-7.185-9.385 5.416-12.601 17.422-7.185 26.812 5.42 9.384 17.427 12.6 26.811 7.184" style="fill:#e51635;fill-opacity:1;fill-rule:nonzero;stroke:none" transform="matrix(1.25 0 0 -1.25 -495.391 1184.88)"/><path d="M1096.927 881.227c0 4.311.97 7.522 2.928 9.628 1.942 2.155 4.529 3.23 7.74 3.23q4.905.001 7.908-3.23c2.007-2.16 3.003-5.367 3.008-9.628v-28.02c0-7.958.545-13.503 1.64-16.625 1.095-3.062 2.839-5.46 5.242-7.174 2.448-1.72 5.446-2.572 8.989-2.572 3.542 0 6.54.827 8.988 2.497q3.751 2.573 5.55 7.487c.887 2.443 1.328 7.67 1.333 15.683v28.823q.002 6.42 2.903 9.549 2.906 3.21 7.69 3.21 4.862 0 7.844-3.21c1.987-2.136 2.978-5.322 2.983-9.549v-23.204q-.001-22.237-3.518-30.434-4.303-9.983-12.665-15.365c-5.58-3.538-12.665-5.302-21.267-5.307q-13.994 0-22.674 6.243c-5.728 4.157-9.771 9.96-12.115 17.397q-2.504 7.723-2.502 28.09v22.481m-165.756-61.348q0-6.466 2.929-9.633c1.952-2.15 4.529-3.225 7.75-3.23 3.27 0 5.9 1.08 7.908 3.23 1.996 2.16 2.997 5.367 2.997 9.633l.005 28.02q-.001 11.937 1.64 16.62c1.095 3.067 2.84 5.46 5.243 7.175 2.443 1.719 5.445 2.576 8.983 2.576 3.543 0 6.546-.832 8.994-2.497 2.502-1.715 4.35-4.212 5.554-7.487.882-2.448 1.323-7.67 1.328-15.683V819.78c0-4.281.971-7.462 2.904-9.558 1.932-2.136 4.499-3.201 7.685-3.206q4.869.001 7.849 3.206c1.982 2.145 2.973 5.326 2.978 9.558v23.204c0 14.826-1.17 24.964-3.513 30.429q-4.305 9.982-12.665 15.37c-5.58 3.533-12.665 5.302-21.267 5.302q-13.994 0-22.674-6.238-8.6-6.242-12.116-17.397c-1.67-5.153-2.502-14.513-2.502-28.09zm-97.708 61.348q.001 6.468 2.924 9.628 2.92 3.231 7.75 3.23 4.898.001 7.903-3.23 3.008-3.238 3.007-9.628v-28.02c0-7.958.55-13.503 1.645-16.625 1.09-3.062 2.835-5.46 5.233-7.174 2.453-1.72 5.445-2.572 8.993-2.572 3.543 0 6.54.827 8.989 2.497 2.502 1.715 4.355 4.212 5.55 7.487.886 2.443 1.327 7.67 1.332 15.683v28.823c0 4.281.971 7.462 2.904 9.549q2.9 3.21 7.695 3.21 4.855 0 7.844-3.21c1.982-2.136 2.978-5.322 2.978-9.549v-23.204q0-22.237-3.523-30.434-4.297-9.983-12.66-15.365c-5.58-3.538-12.67-5.302-21.267-5.307-9.33 0-16.882 2.08-22.675 6.243-5.728 4.157-9.766 9.96-12.115 17.397-1.67 5.148-2.497 14.513-2.497 28.09zm-193.359 0q0 6.468 2.928 9.628 2.92 3.231 7.75 3.23 4.899.001 7.903-3.23c1.987-2.14 2.988-5.322 3.008-9.529v-28.12c0-7.957.545-13.502 1.64-16.624 1.095-3.062 2.839-5.46 5.237-7.174 2.448-1.72 5.446-2.572 8.988-2.572 3.543 0 6.541.827 8.994 2.497 2.497 1.715 4.35 4.212 5.55 7.487.886 2.443 1.327 7.67 1.332 15.683v28.823q0 6.42 2.904 9.549c1.932 2.14 4.5 3.21 7.685 3.21 3.24 0 5.862-1.07 7.849-3.21 1.982-2.136 2.978-5.322 2.983-9.549v-23.204q0-22.237-3.523-30.434-4.298-9.983-12.66-15.365c-5.58-3.538-12.67-5.302-21.267-5.307q-13.994 0-22.674 6.243c-5.733 4.157-9.772 9.96-12.115 17.397q-2.504 7.723-2.503 28.09zm168.441-7.784a43 43 0 0 1-.897 1.937 42 42 0 0 0 1.387-3.19 24 24 0 0 1-.49 1.253m-71.095-23.145.035 1.273a2 2 0 0 0-.035.431V909.5c0 3.523.074 6.269.238 8.25.213 2.022.748 3.761 1.605 5.203.857 1.492 2.086 2.696 3.692 3.603 1.605.96 3.394 1.442 5.376 1.442 2.78 0 5.297-1.041 7.541-3.122 1.497-1.392 2.433-3.097 2.81-5.124.426-1.982.644-4.806.644-8.493v-22.064c4.41 1.59 9.073 4.92 18.155 4.92 8.597 0 12.789-1.769 18.368-5.302a31.8 31.8 0 0 0 7.72-6.996 35.4 35.4 0 0 0 4.049-6.437q.467-.947.896-1.937a24 24 0 0 0 .491-1.254c2.359-6.1 3.746-13.547 3.746-21.594 0-7.893-1.343-15.217-3.622-21.257a22 22 0 0 0-.615-1.62 40 40 0 0 0-2.026-4.058 36 36 0 0 0-1.938-3.018 31.9 31.9 0 0 0-8.7-8.295c-5.58-3.533-12.666-5.301-21.268-5.301-9.33 0-16.881 2.08-22.669 6.243-5.738 4.157-9.771 9.96-12.12 17.397q-1.941 5.997-2.373 19.612m47.142-23.06q3.077 2.11 4.965 5.658c.183.213.332.436.45.679 2.245 4.687 3.578 10.539 3.578 16.876 0 6.12-1.239 11.784-3.344 16.387q-1.97 4.565-5.65 7.085-4.041 2.75-9.89 2.75-5.847-.001-9.89-2.834c-2.636-1.888-4.558-4.524-5.762-7.898-.917-2.611-1.482-6.774-1.7-12.477-.094-8.835.51-14.845 1.7-18.244 1.204-3.38 3.126-6.01 5.762-7.899 2.696-1.892 5.991-2.829 9.89-2.829s7.195.907 9.89 2.745m247.177 68.355h2.408v13.373q0 5.388.238 8.404c.213 2.066.748 3.83 1.605 5.302.858 1.521 2.082 2.745 3.692 3.667 1.605.98 3.39 1.471 5.371 1.471q4.176 0 7.542-3.18c1.501-1.418 2.433-3.157 2.814-5.223q.633-3.017.634-8.642v-15.172h8.027c3.097 0 5.456-.763 7.056-2.285q2.489-2.2 2.488-5.708c0-2.993-1.174-5.084-3.528-6.283-2.304-1.194-5.614-1.793-9.945-1.793h-4.098v-40.944c0-3.478.11-6.174.327-8.076.263-1.844.907-3.37 1.928-4.569 1.06-1.14 2.775-1.71 5.128-1.71q1.933 0 5.218.655c2.19.49 3.905.733 5.133.733 1.77 0 3.34-.733 4.732-2.2q2.17-2.127 2.17-5.302-.001-5.387-5.777-8.24-5.783-2.848-16.604-2.854c-6.853 0-12.04 1.17-15.569 3.508-3.533 2.334-5.852 5.57-6.981 9.702-1.07 4.137-1.6 9.652-1.6 16.56v42.737h-2.89c-3.156 0-5.569.758-7.224 2.284-1.66 1.521-2.483 3.449-2.483 5.792 0 2.339.853 4.237 2.567 5.708 1.764 1.522 4.301 2.28 7.621 2.285" style="fill:#241d10;fill-opacity:1;fill-rule:nonzero;stroke:none" transform="matrix(1.25 0 0 -1.25 -495.391 1184.88)"/></svg>